<?xml version="1.0" encoding="UTF-8" standalone="no"?>
<svg
   version="1.1"
   id="Layer_1"
   x="0px"
   y="0px"
   width="100%"
   viewBox="0 0 752 751"
   enable-background="new 0 0 752 751"
   xml:space="preserve"
   sodipodi:docname="wave_fuji2.svg"
   inkscape:version="1.1.2 (0a00cf5339, 2022-02-04)"
   xmlns:inkscape="http://www.inkscape.org/namespaces/inkscape"
   xmlns:sodipodi="http://sodipodi.sourceforge.net/DTD/sodipodi-0.dtd"
   xmlns="http://www.w3.org/2000/svg"
   xmlns:svg="http://www.w3.org/2000/svg"><defs
   id="defs133832" /><sodipodi:namedview
   id="namedview133830"
   pagecolor="#ffffff"
   bordercolor="#666666"
   borderopacity="1.0"
   inkscape:pageshadow="2"
   inkscape:pageopacity="0.0"
   inkscape:pagecheckerboard="0"
   showgrid="false"
   inkscape:zoom="0.96804261"
   inkscape:cx="376.01651"
   inkscape:cy="375.5"
   inkscape:window-width="2048"
   inkscape:window-height="1195"
   inkscape:window-x="0"
   inkscape:window-y="0"
   inkscape:window-maximized="1"
   inkscape:current-layer="Layer_1" />





























































































<g
   id="g138227"
   transform="translate(6.9437044,9.5762971)"><circle
     style="fill:#8290c7;stroke-width:1.1647;stroke-linecap:round"
     id="path134424"
     cx="368.43124"
     cy="366.01639"
     r="374.03305" /><g
     id="g134400"
     transform="matrix(0.89095709,0,0,0.89214381,32.540298,30.124231)"><path
       fill="#e1d5bd"
       opacity="1"
       stroke="none"
       d="m 753,338 c 0,25.35422 0,50.70847 -0.37341,76.23065 -0.79102,1.50891 -1.41028,2.82294 -1.59345,4.19519 -1.11755,8.37213 -1.63147,16.85987 -3.30627,25.11438 -2.4914,12.27939 -5.5174,24.4689 -8.82343,36.55789 -2.12634,7.77524 -5.16327,15.30152 -8.22156,22.91922 -11.68872,-2.34463 -22.17688,-1.39138 -31.10949,6.85053 -6.33734,5.84729 -12.70319,11.67676 -19.3136,17.2066 -1.83862,1.53809 -4.55884,2.6734 -6.9353,2.79383 -6.7605,0.34228 -13.31104,-0.37769 -20.0658,-2.26368 -7.24054,-2.02172 -15.2395,-1.32727 -22.30597,-1.77972 -0.0533,1.15326 0.51593,4.57996 -0.37573,5.01538 -2.1955,1.07227 -5.22388,1.45429 -7.6275,0.8866 -6.15119,-1.45258 -6.70105,-7.02466 -7.88037,-12.05811 -1.74604,-7.4516 -4.31775,-8.90387 -12.00647,-6.75873 0.62164,3.17975 1.24902,6.3891 1.8764,9.59852 -0.40997,0.26464 -0.82001,0.52929 -1.22998,0.79394 -1.72772,-1.09277 -3.50513,-2.11511 -5.17389,-3.29156 -4.99585,-3.52222 -9.52545,-8.08686 -15.01013,-10.45273 -10.4032,-4.48764 -14.55158,-6.52384 -14.41461,-21.79746 0.0408,-4.55151 -1.15778,-5.90375 -5.81354,-5.86755 -27.98242,0.21756 -55.96738,0.10797 -83.95151,0.10785 -12.32693,-6e-5 -12.32724,-2.2e-4 -12.3429,-12.11261 -0.002,-1.76169 -3e-4,-3.52335 -3e-4,-6.206 -3.20682,1.56302 -5.4389,3.05213 -7.89612,3.76352 -4.85007,1.40418 -9.77969,3.00354 -14.75998,3.36249 -5.56836,0.40134 -11.25,-0.9057 -16.84161,-0.63318 -2.85501,0.13916 -6.01886,1.58637 -8.34113,3.36103 -4.33355,3.31161 -8.09231,7.36468 -12.20422,10.97961 -5.56964,4.89651 -9.85269,10.2319 -9.04279,18.37875 0.4,4.02369 2.67911,5.77948 6.05179,5.9281 3.14725,0.13868 4.89649,-1.63574 5.1514,-5.29287 0.43503,-6.24137 5.18378,-8.50901 10.75275,-5.58197 6.90307,3.62817 7.29312,13.86087 0.006,17.91592 -9.15353,5.09338 -18.93646,9.05579 -28.89761,13.71668 -1.21445,-1.44227 -2.69025,-3.20423 -4.1759,-4.95777 -9.01599,-10.64172 -20.84186,-14.78134 -34.20267,-12.77539 -12.09241,1.81555 -23.82233,2.70752 -35.86899,-0.30923 -10.61978,-2.65946 -21.87906,-3.2771 -31.59958,2.19168 -13.68976,7.70184 -25.38192,0.75696 -37.13487,-3.75614 -6.24202,-2.39688 -11.24286,-8.04474 -16.77747,-12.25991 -5.09454,-3.88007 -10.15364,-7.80671 -15.49186,-11.95624 -4.00388,-10.12454 -7.74427,-20.00574 -11.54116,-30.23181 -0.48556,-1.4155 -0.91459,-2.48606 -1.37587,-3.80689 -0.26805,-0.48392 -0.50387,-0.71759 -0.76345,-1.35504 -0.70377,-6.07767 -1.38379,-11.75153 -1.842,-17.70093 4.3044,-4.8555 3.93741,-7.83719 -1.07918,-11.01886 0.15952,-3.8269 -0.14659,-7.35248 0.67154,-10.59436 0.9413,-3.72986 3.66405,-7.0899 0.91568,-11.15759 -0.3858,-0.57102 -0.10919,-2.27381 0.43788,-2.68506 5.51377,-4.14493 3.46036,-10.98676 6.2118,-16.37375 1.49418,-2.3558 2.44142,-4.73178 3.97032,-6.64224 10.21307,-12.76181 20.5502,-25.42432 31.12756,-38.27106 1.70087,-1.40375 3.12122,-2.65552 4.79385,-3.97424 0.4495,-0.33865 0.64672,-0.61032 0.81034,-0.8624 -0.0336,0.0196 0.0393,0.0468 0.38327,-0.005 2.9844,-1.76905 5.64302,-3.45896 8.26208,-5.2081 13.32169,-8.89679 27.87845,-10.84574 43.17432,-7.43335 -4.36304,8.18277 -3.61148,10.4291 3.51254,15.57113 8.93164,6.44675 16.79633,4.61267 27.87183,-2.82281 2.1188,-1.42246 3.99914,-3.20001 6.50836,-5.23444 0.77976,10.39502 0.242,19.4863 -6.36899,27.14932 -2.54263,2.94727 -5.07184,4.88132 -9.45428,3.1648 -3.70505,-1.4512 -6.41855,0.56137 -7.6135,4.3425 -1.56357,4.94742 2.24146,11.60864 7.32352,12.29068 10.25409,1.37619 19.07751,-1.07275 25.44028,-9.97449 2.17385,-3.04129 4.8826,-5.70019 7.34692,-8.53381 0.14365,0.78 0.28726,1.55999 0.43091,2.33999 3.78735,1.34528 7.9711,4.44547 11.28549,3.69684 8.87198,-2.0039 11.55921,-9.37677 10.93506,-19.23718 6.75613,7.3768 7.89554,14.54013 6.31784,22.80115 -1.18115,-0.27057 -1.99252,-0.68436 -2.73688,-0.5868 -2.95703,0.38767 -6.79709,-0.0454 -8.63147,1.646 -2.9725,2.74085 -2.51803,6.83292 -0.30948,10.54614 3.33509,5.60715 9.612,8.54526 16.17905,7.25321 9.40643,-1.85077 15.18997,-7.50043 16.12277,-15.30872 0.44705,-3.74225 0.74628,-7.78854 2.40109,-11.04156 3.63883,-7.15323 3.40775,-13.99762 0.33234,-21.06949 -1.55914,-3.58524 -3.11984,-7.16974 -4.74219,-10.89777 0.9318,-0.26196 1.41507,-0.55499 1.85209,-0.49734 7.66494,1.01071 15.26464,12.65716 15.91427,19.25427 0.0754,0.76608 -0.68094,2.00653 -1.39514,2.3942 -4.6702,2.53482 -3.79367,6.49939 -2.84857,10.4581 1.06497,4.46099 4.94241,4.19409 8.71072,4.79269 1.24167,0.0361 2.10669,0.1918 2.89356,0.01 4.40283,-1.01832 7.92175,-5.75885 6.77087,-9.41706 0.0657,-2.45788 0.10623,-4.48266 0.4856,-6.58014 2.67523,-2.65286 1.6358,-4.12652 -1.30518,-5.35348 -0.0261,-1.0997 -0.0191,-1.83371 0.35599,-2.6239 3.69391,-1.54264 7.065,-2.93998 10.30661,-4.5915 0.64044,-0.32629 0.7825,-1.6307 1.22046,-2.86496 2.71847,-6.26461 2.85009,-12.37991 0.89953,-18.36349 -0.73315,-2.24899 -2.55374,-4.97601 -4.57202,-5.81299 -5.44159,-2.25659 -11.20325,-3.82449 -16.93844,-5.26541 -5.2876,-1.32849 -10.77991,-1.85449 -16.04996,-3.23743 -9.15256,-2.40179 -15.75116,-10.52777 -15.2414,-19.80178 0.71613,-13.02759 -0.79959,-25.1639 -9.33898,-35.70745 -1.11075,-1.3714 -1.29474,-3.6766 -1.45984,-5.58798 -0.25083,-2.90373 -0.1092,-5.84135 0.27237,-8.75533 8.42688,1.0739 16.49881,1.85259 24.45172,3.28983 6.87945,1.24327 9.7828,0.55258 13.73181,-4.81422 4.50464,-6.12188 11.40784,-8.59014 18.80551,-6.72394 6.09412,1.53732 7.1813,3.11107 5.31726,9.01732 -1.2095,3.83235 0.91647,5.63768 3.77441,6.00671 2.41202,0.31145 5.4123,-0.34538 7.48496,-1.64105 7.3107,-4.57018 14.40594,-9.49957 21.41769,-14.52336 1.80075,-1.29023 3.03354,-3.39632 4.45893,-5.18213 2.43234,-3.04741 4.74774,-6.18974 7.22619,-9.19835 3.77631,-4.58395 7.8209,-8.9617 11.33826,-13.73181 0.70721,-0.95909 0.16214,-3.86257 -0.82535,-4.86742 -3.60772,-3.67117 -3.63107,-5.67123 1.18567,-7.30995 2.6402,-0.89822 5.85117,-0.9463 8.62994,-0.4324 5.30936,0.98193 10.45237,2.83125 15.73942,3.97296 8.22375,1.77585 10.81042,6.49727 7.27459,13.96834 -1.39196,2.94104 -3.11126,6.046 0.42804,8.42752 3.53723,2.38017 5.88996,-0.38596 7.99756,-2.77803 3.87634,-4.39957 8.28491,-7.23409 14.4679,-7.78405 2.60778,-0.23196 5.80023,-2.65211 7.28644,-4.99243 3.61181,-5.68739 8.85247,-6.31457 13.10711,-1.1073 1.72461,2.11073 3.86737,4.49297 6.29413,5.26975 3.43964,1.10096 7.31403,1.02308 11.00983,1.09942 4.78875,0.0989 8.64666,-4.34425 9.01611,-9.04266 0.13068,-1.66277 2.55927,-4.70883 3.19342,-4.52681 6.53949,1.87709 9.68603,-2.39276 13.24896,-6.41309 2.99353,-3.3779 6.58643,-2.47441 9.11933,1.13359 1.45727,2.07584 4.5979,4.95108 6.28784,4.54964 8.69293,-2.06494 16.33685,1.43186 24.34454,3.22426 1.60126,0.35841 3.47046,-0.47983 4.13031,-0.58812 3.69403,0.50769 7.068,2.05881 9.17261,1.02521 3.9032,-1.91683 7.37402,-5.04714 10.43457,-8.23841 2.31836,-2.41742 0.64539,-7.87756 -2.70343,-10.02638 -3.19537,-2.0504 -5.62293,-1.53145 -7.65112,2.16864 -2.17365,3.96543 -7.24311,3.33226 -9.48609,-0.85734 -2.19189,-4.09421 -1.11938,-7.55666 2.84357,-10.89914 3.14386,-2.65171 5.95599,-5.69683 9.23639,-8.43288 3.77118,4.82544 7.28345,9.47237 10.66089,14.21527 14.6878,20.62589 27.3637,42.45348 36.85638,65.91252 7.03296,17.38022 13.69879,35.01587 18.8642,53.01526 5.31018,18.50397 9.14868,37.48892 10.34436,56.85398 0.0431,0.69708 1.25122,1.32217 1.91638,1.9808 m -113.46637,41.1926 c 3.00208,-1.40772 6.19379,-2.51542 8.97455,-4.27326 14.84338,-9.38299 23.65979,-22.647 26.57751,-40.15808 3.04596,-18.28049 -1.75457,-34.14639 -14.37225,-47.14349 -10.47058,-10.78546 -23.3844,-16.6854 -39.13318,-16.84269 -15.59119,-0.15569 -28.79999,4.61033 -39.8573,15.11759 -13.48724,12.81641 -18.87091,28.68185 -16.81085,47.30319 2.52185,22.79584 18.02289,40.67621 39.05511,46.76993 11.60791,3.3631 23.27253,3.00702 35.56641,-0.77319 m -360.44049,17.24716 c -0.44147,0.69037 -1.31329,1.42358 -1.24957,2.06369 0.27029,2.71634 -0.0139,6.12851 1.51468,7.88644 1.345,1.54682 5.03314,2.08106 7.32376,1.53653 3.2937,-0.78299 4.69406,-3.75513 4.35586,-7.37396 -0.49093,-5.25272 -4.40387,-6.90903 -11.94473,-4.1127 m 46.78876,36.2767 c -0.25379,1.75635 -1.2829,3.95786 -0.58744,5.16925 1.16916,2.03641 3.17368,4.18143 5.30286,4.93415 2.86066,1.01135 5.90729,0.37307 7.24014,-3.30311 0.97809,-2.69763 2.31818,-5.13205 -0.74621,-7.52981 -3.72223,-2.91251 -7.18729,-4.14115 -11.20935,0.72952 m -57.7251,-90.73587 c -0.79001,3.84427 1.30157,5.93686 4.69049,5.80399 2.04974,-0.0804 4.9649,-1.49634 5.82419,-3.16874 1.36615,-2.65908 0.15933,-6.22039 -3.05225,-6.52667 -2.2717,-0.21667 -4.77771,2.02381 -7.46243,3.89142 m 112.31161,57.9487 c 1.01682,-4.67062 -1.92477,-5.7713 -5.57104,-5.93332 -3.74243,-0.16635 -4.93845,2.5994 -4.71018,5.51846 0.1196,1.52918 1.72663,3.66166 3.16513,4.21613 2.87052,1.10651 5.50593,0.0927 7.11609,-3.80127 m 31.11329,7.93533 c 1.01776,-3.19357 -0.23801,-5.87136 -3.3682,-5.60031 -2.46384,0.21338 -4.73831,2.6131 -7.09692,4.04163 1.56271,1.84176 2.82055,4.44409 4.80298,5.23871 1.1799,0.47296 3.49905,-1.89624 5.66214,-3.68003 m -201.48246,38.64383 c 0.5931,3.11103 2.5362,4.85135 5.59072,4.16593 0.99874,-0.22415 2.28082,-2.52011 2.13058,-3.7031 -0.19693,-1.55066 -1.35376,-3.50628 -2.68381,-4.27914 -2.99636,-1.74109 -3.99464,0.86633 -5.03749,3.81631 m 24.92081,48.10651 c 0.12978,3.73642 2.85448,3.80688 5.28662,3.18884 1.10535,-0.28085 2.72908,-2.47299 2.47752,-3.29809 -0.48394,-1.58747 -2.17427,-3.95758 -3.29383,-3.91971 -1.51867,0.0514 -2.97118,2.05978 -4.47031,4.02896 m 155.4779,14.36801 c 0.18387,-2.08108 0.36774,-4.16217 0.55161,-6.24325 -1.86612,0.0292 -3.95181,-0.42765 -5.51257,0.27743 -0.8776,0.39646 -1.61725,3.62796 -1.15641,3.99439 1.52573,1.21316 3.6251,1.70492 6.11737,1.97143 z"
       id="path133641" /><path
       fill="#d8d4af"
       opacity="1"
       stroke="none"
       d="m 674.0368,145.88782 c -2.95941,2.8704 -5.77154,5.91552 -8.9154,8.56723 -3.96295,3.34248 -5.03546,6.80493 -2.84357,10.89914 2.24298,4.1896 7.31244,4.82277 9.48609,0.85734 2.02819,-3.70009 4.45575,-4.21904 7.65112,-2.16864 3.34882,2.14882 5.02179,7.60896 2.70343,10.02638 -3.06055,3.19127 -6.53137,6.32158 -10.43457,8.23841 -2.10461,1.0336 -5.47858,-0.51752 -9.17261,-1.02521 -0.65985,0.10829 -2.52905,0.94653 -4.13031,0.58812 -8.00769,-1.7924 -15.65161,-5.2892 -24.34454,-3.22426 -1.68994,0.40144 -4.83057,-2.4738 -6.28784,-4.54964 -2.5329,-3.608 -6.1258,-4.51149 -9.11933,-1.13359 -3.56293,4.02033 -6.70947,8.29018 -13.24896,6.41309 -0.63415,-0.18202 -3.06274,2.86404 -3.19342,4.52681 -0.36945,4.69841 -4.22736,9.14156 -9.01611,9.04266 -3.6958,-0.0763 -7.57019,0.002 -11.00983,-1.09942 -2.42676,-0.77678 -4.56952,-3.15902 -6.29413,-5.26975 -4.25464,-5.20727 -9.4953,-4.58009 -13.10711,1.1073 -1.48621,2.34032 -4.67866,4.76047 -7.28644,4.99243 -6.18299,0.54996 -10.59156,3.38448 -14.4679,7.78405 -2.1076,2.39207 -4.46033,5.1582 -7.99756,2.77803 -3.5393,-2.38152 -1.82,-5.48648 -0.42804,-8.42752 3.53583,-7.47107 0.94916,-12.19249 -7.27459,-13.96834 -5.28705,-1.14171 -10.43006,-2.99103 -15.73942,-3.97296 -2.77877,-0.5139 -5.98974,-0.46582 -8.62994,0.4324 -4.81674,1.63872 -4.79339,3.63878 -1.18567,7.30995 0.98749,1.00485 1.53256,3.90833 0.82535,4.86742 -3.51736,4.77011 -7.56195,9.14786 -11.33826,13.73181 -2.47845,3.00861 -4.79385,6.15094 -7.22619,9.19835 -1.42539,1.78581 -2.65818,3.8919 -4.45893,5.18213 -7.01175,5.02379 -14.10699,9.95318 -21.41769,14.52336 -2.07266,1.29567 -5.07294,1.9525 -7.48496,1.64105 -2.85794,-0.36903 -4.98391,-2.17436 -3.77441,-6.00671 1.86404,-5.90625 0.77686,-7.48 -5.31726,-9.01732 -7.39767,-1.8662 -14.30087,0.60206 -18.80551,6.72394 -3.94901,5.3668 -6.85236,6.05749 -13.73181,4.81422 -7.95291,-1.43724 -16.02484,-2.21593 -24.54724,-3.63957 -2.41831,-5.00229 -4.39856,-9.53733 -9.28675,-12.02408 -1.05398,-0.53619 -1.51788,-2.13596 -2.41452,-3.09543 -3.14798,-3.36864 -6.44674,-6.59921 -9.52908,-10.02537 -2.02072,-2.24617 -4.42362,-4.47574 -5.50629,-7.17383 -2.65051,-6.60547 -6.36093,-12.27416 -12.88876,-15.22138 -17.29428,-7.80809 -34.5799,-7.55659 -51.15271,1.93965 -5.06256,2.90085 -8.58493,3.16076 -13.22965,-0.72959 -3.13677,-2.62738 -7.51754,-4.21801 -11.59814,-5.14879 -4.40527,-1.00484 -5.4498,-2.95201 -4.43787,-7.00881 1.6576,-6.64538 0.25559,-12.53637 -4.9461,-17.24981 -3.07808,-2.78916 -6.16158,-5.57891 -9.35556,-8.23247 -14.17282,-11.7748 -30.22232,-16.8014 -48.66657,-13.84311 -11.21713,1.79912 -21.87027,5.1049 -33.96708,0.65805 -12.62796,-4.64211 -26.27672,-0.98029 -39.10558,2.88646 -12.70196,3.82847 -22.79943,12.15442 -33.103897,19.99127 -5.280334,4.01585 -10.280159,7.49902 -16.977356,2.99136 -0.854332,-0.57499 -2.266037,-0.32188 -3.285026,-0.77114 8.656616,-10.80846 16.705108,-21.7334 25.832939,-31.66651 9.28085,-10.0996 19.28198,-19.61348 29.60167,-28.660703 10.13905,-8.888863 20.79588,-17.254135 31.72081,-25.165161 20.59257,-14.911602 42.55301,-27.676503 66.22444,-36.967003 18.99738,-7.456026 38.28256,-14.505165 57.96036,-19.801512 C 301.19757,7.781399 318.77505,6.015563 336.00638,2.927285 336.76178,2.791896 337.33951,1.665024 338,0.999999 363.68756,1 389.37512,1 415.23267,1.374334 c 0.84988,0.782829 1.49166,1.454392 2.21554,1.559224 7.40985,1.073099 14.94165,1.558845 22.23123,3.157762 18.73026,4.108318 37.74399,7.496385 55.92874,13.383083 26.26011,8.500826 51.33451,20.094475 75.07206,34.438454 22.4693,13.577652 43.53949,28.997978 62.59643,47.020363 10.09802,9.54976 19.56934,19.78204 29.01972,29.9876 4.29376,4.63689 7.84979,9.95687 11.74041,14.967 M 275.45032,131.33021 c -0.15097,1.13483 -0.39987,2.26667 -0.43473,3.40505 -0.10928,3.5686 1.267,6.15341 5.06141,6.74655 3.80453,0.59471 7.06741,-0.70753 8.59491,-4.23369 1.43508,-3.31292 -0.18543,-6.24444 -3.09662,-8.07745 -3.5069,-2.2081 -6.88504,-1.90543 -10.12497,2.15954 m 138.20984,53.52675 c -0.56296,2.34302 -1.88291,4.85361 -1.4148,6.96842 0.29739,1.34363 3.38016,3.07527 4.98142,2.86476 1.88967,-0.24843 4.22857,-2.04421 5.1362,-3.80611 2.15347,-4.18034 -1.92429,-7.36038 -8.70282,-6.02707 m -91.4777,-61.29909 c -0.6575,2.17353 -1.84787,4.37348 -1.742,6.50918 0.051,1.0292 2.49164,2.63842 3.94293,2.74713 2.62058,0.19627 5.79715,-0.50104 5.45481,-4.05049 -0.36335,-3.7672 -2.36881,-6.53084 -7.65574,-5.20582 m -50.31573,-4.51968 c 0.54956,-3.2544 0.29672,-6.0495 -3.0622,-6.55491 -2.5541,1.40953 -4.54461,2.50805 -7.51528,4.14748 1.00961,1.92901 1.88409,5.45576 3.14276,5.59866 2.26455,0.25709 4.75946,-1.51483 7.43472,-3.19123 z"
       id="path133643" /><path
       fill="#fdfefe"
       opacity="1"
       stroke="none"
       d="m 72.887794,154.89223 c 1.153496,0.13052 2.565201,-0.12259 3.419533,0.4524 6.697197,4.50766 11.697022,1.02449 16.977356,-2.99136 10.304467,-7.83685 20.401937,-16.1628 33.103897,-19.99127 12.82886,-3.86675 26.47762,-7.52857 39.10558,-2.88646 12.09681,4.44685 22.74995,1.14107 33.96708,-0.65805 18.44425,-2.95829 34.49375,2.06831 48.66657,13.84311 3.19398,2.65356 6.27748,5.44331 9.35556,8.23247 5.20169,4.71344 6.6037,10.60443 4.9461,17.24981 -1.01193,4.0568 0.0326,6.00397 4.43787,7.00881 4.0806,0.93078 8.46137,2.52141 11.59814,5.14879 4.64472,3.89035 8.16709,3.63044 13.22965,0.72959 16.57281,-9.49624 33.85843,-9.74774 51.15271,-1.93965 6.52783,2.94722 10.23825,8.61591 12.88876,15.22138 1.08267,2.69809 3.48557,4.92766 5.50629,7.17383 3.08234,3.42616 6.3811,6.65673 9.52908,10.02537 0.89664,0.95947 1.36054,2.55924 2.41452,3.09543 4.88819,2.48675 6.86844,7.02179 8.8801,12.01482 0.1206,3.27298 -0.021,6.2106 0.2298,9.11433 0.1651,1.91138 0.34909,4.21658 1.45984,5.58798 8.53939,10.54355 10.05511,22.67986 9.33898,35.70745 -0.50976,9.27401 6.08884,17.39999 15.2414,19.80178 5.27005,1.38294 10.76236,1.90894 16.04996,3.23743 5.73519,1.44092 11.49685,3.00882 16.93844,5.26541 2.01828,0.83698 3.83887,3.564 4.57202,5.81299 1.95056,5.98358 1.81894,12.09888 -1.29821,18.39621 -1.45789,0.47012 -2.47211,0.68262 -3.4397,0.55136 -2.16312,-0.29355 -5.40662,-0.0707 -6.18503,-1.32001 -1.07767,-1.72964 -0.55511,-4.6575 -0.21198,-6.9981 0.21683,-1.47934 1.35578,-2.82349 2.04252,-4.15348 -6.59473,-5.32565 -14.02414,-5.79999 -19.09534,-1.76721 5.14029,7.06863 10.2666,14.11801 15.39291,21.16739 -0.007,0.73398 -0.0138,1.46799 -0.0307,2.94473 0.32981,2.17823 0.66953,3.61371 1.00928,5.04917 -0.0406,2.02475 -0.0811,4.04953 -0.48047,6.55963 -3.48703,3.42984 -6.61523,6.37427 -9.74347,9.31869 -3.35559,-0.56225 -7.23303,-0.29535 -8.298,-4.75634 -0.9451,-3.95871 -1.82163,-7.92328 2.84857,-10.4581 0.7142,-0.38767 1.47058,-1.62812 1.39514,-2.3942 -0.64963,-6.59711 -8.24933,-18.24356 -15.91427,-19.25427 -0.43702,-0.0576 -0.92029,0.23538 -1.85209,0.49734 1.62235,3.72803 3.18305,7.31253 4.74219,10.89777 3.07541,7.07187 3.30649,13.91626 -0.33234,21.06949 -1.65481,3.25302 -1.95404,7.29931 -2.40109,11.04156 -0.9328,7.80829 -6.71634,13.45795 -16.12277,15.30872 -6.56705,1.29205 -12.84396,-1.64606 -16.17905,-7.25321 -2.20855,-3.71322 -2.66302,-7.80529 0.30948,-10.54614 1.83438,-1.69141 5.67444,-1.25833 8.63147,-1.646 0.74436,-0.0976 1.55573,0.31623 2.73688,0.5868 1.5777,-8.26102 0.43829,-15.42435 -6.31784,-22.80115 0.62415,9.86041 -2.06308,17.23328 -10.93506,19.23718 -3.31439,0.74863 -7.49814,-2.35156 -11.28549,-3.69684 -0.14365,-0.78 -0.28726,-1.55999 -0.43091,-2.33999 -2.46432,2.83362 -5.17307,5.49252 -7.34692,8.53381 -6.36277,8.90174 -15.18619,11.35068 -25.44028,9.97449 -5.08206,-0.68204 -8.88709,-7.34326 -7.32352,-12.29068 1.19495,-3.78113 3.90845,-5.7937 7.6135,-4.3425 4.38244,1.71652 6.91165,-0.21753 9.45428,-3.1648 6.61099,-7.66302 7.14875,-16.7543 6.36899,-27.14932 -2.50922,2.03443 -4.38956,3.81198 -6.50836,5.23444 -11.0755,7.43548 -18.94019,9.26956 -27.87183,2.82281 -7.12402,-5.14203 -7.87558,-7.38836 -3.17917,-15.65649 1.57944,-0.76947 2.65918,-1.14093 4.14032,-1.44953 1.48038,0.0131 2.5593,-0.0367 4.00208,0.004 2.21844,0.74542 4.07309,1.40051 5.87006,2.03522 4.50613,-6.18936 4.57455,-17.97186 2.61059,-24.9834 -0.22204,-0.79272 -2.84845,-1.67566 -3.95636,-1.30634 -2.77222,0.92432 -5.21823,2.79755 -7.96948,3.82166 -3.51065,1.30682 -8.76236,-1.6102 -11.52298,-5.85181 -2.11313,-3.24679 -2.09311,-6.77716 0.77414,-8.92108 2.40957,-1.80173 5.95422,-2.08542 10.45498,-3.49942 -1.66424,-5.9754 -3.64462,-13.08578 -5.6658,-20.55923 -1.55002,-3.17301 -3.05917,-5.98296 -4.81231,-9.24715 -1.11765,4.53976 -0.87626,9.71815 -3.01224,11.03227 -5.48374,3.37372 -7.89026,8.62839 -11.58881,13.48569 -2.83841,0.42801 -5.27026,1.12891 -7.69571,1.10727 -4.13983,-0.0368 -6.07821,-2.80853 -6.85907,-6.56574 -0.79034,-3.80273 0.94211,-5.86169 4.50879,-6.99551 1.38907,-0.44159 2.51892,-1.69861 3.70301,-2.98022 -1.1352,-4.08683 -2.20652,-7.77765 -3.28525,-11.82401 -3.96082,-8.5912 -9.03147,-15.67281 -19.09836,-18.94337 0.8584,8.27368 1.63826,15.79048 2.24975,23.61726 -1.66563,2.45878 -2.73997,5.20267 -4.74943,6.63077 -4.00572,2.84683 -5.31603,6.51382 -5.34706,11.37402 -4.64017,8.58139 -11.11287,13.87518 -21.15532,14.00391 -0.99519,-0.5553 -1.78633,-0.8396 -2.4915,-1.26606 -2.4422,-1.47686 -5.13494,-2.97052 -4.06796,-6.49084 0.95263,-3.14301 3.03187,-5.134 6.64865,-4.68338 4.0969,0.51044 4.68138,-2.53418 4.98768,-5.31696 0.34346,-3.12036 0.44025,-6.34658 0.0538,-9.4533 -1.00365,-8.06983 -4.41989,-15.01062 -10.61328,-20.53605 0.16905,3.14438 0.7798,6.13126 1.41324,9.11333 2.11845,9.97327 -2.47148,19.22176 -11.43353,22.08519 -3.23646,1.03406 -6.84333,0.90869 -10.54514,1.15286 -1.10164,-0.75283 -1.9393,-1.34613 -2.82852,-2.19912 -0.33022,-0.45655 -0.60886,-0.65341 -0.86858,-0.81546 0.0189,0.0349 0.0782,-0.0179 0.0603,-0.42688 -2.20447,-8.79328 -1.89659,-11.10404 3.80296,-13.93879 4.81351,-2.39405 4.74771,-5.75903 3.48183,-9.77737 -3.45772,-10.97604 -10.60388,-18.71069 -21.25502,-22.95699 -3.01621,-1.20246 -6.44835,-1.3616 -10.79691,-2.21704 1.2018,2.28257 1.54142,3.44239 2.27495,4.23993 6.28769,6.83663 8.21997,14.98798 7.44431,23.99617 -0.53575,6.22177 -2.3261,11.67614 -8.38483,14.85169 -1.36801,0.71701 -2.3464,2.17737 -3.69382,3.58234 -1.11825,2.10165 -2.04682,3.91647 -3.3016,5.8345 -3.09836,1.74298 -5.87052,3.38278 -8.9877,4.974 -0.80623,-0.007 -1.26743,0.0348 -2.12537,0.0199 -5.30725,-0.008 -8.9227,-2.24456 -10.22496,-6.91763 -1.24025,-4.45056 2.37189,-6.4473 5.51862,-8.41208 4.778,-2.98337 5.63568,-4.77267 2.77804,-11.59868 -1.34988,-3.22441 -4.80025,-5.56945 -7.2989,-8.31294 -1.91031,1.86054 -4.3412,3.42166 -5.62012,5.64536 -2.48924,4.32809 -6.16789,5.82048 -10.32604,4.16681 -2.53574,-1.00846 -5.13672,-3.67193 -6.15838,-6.21479 -1.32063,-3.287 1.41007,-5.38961 4.49308,-6.55905 0.48807,-0.18515 0.83391,-0.74527 1.29565,-1.17914 -7.34829,-5.23926 -17.36058,-2.99154 -21.0617,3.81966 3.52091,3.21558 7.65063,5.78409 10.08394,9.47191 4.41354,6.68892 4.43898,13.24063 -3.74651,16.89944 -1.53195,0.68479 -2.51926,2.51508 -3.87585,3.67929 -3.62111,3.1077 -7.614224,4.31705 -12.347721,2.59375 -3.685684,-1.34188 -6.523522,-3.95898 -5.811409,-7.58429 0.526947,-2.68258 3.592888,-4.86642 5.695053,-7.48054 -4.17086,-4.95241 -19.756256,-5.93817 -25.885628,-0.64815 1.381706,0.70549 2.695961,1.38834 4.020325,2.05098 12.686859,6.34782 14.357529,11.11067 8.684761,24.08998 -0.478195,1.09412 -0.291069,2.84384 0.255188,3.96274 4.069374,8.33548 2.839271,14.70987 -4.213844,21.11203 -0.972413,0.88266 -1.918297,1.89819 -2.551438,3.03351 -3.145012,5.63946 -8.171119,8.00415 -14.657314,8.36279 -4.792511,-1.95407 -8.146904,-4.61694 -7.709965,-10.0462 0.373337,-4.63901 3.627533,-6.07587 7.823254,-6.27396 -3.441353,-5.7569 -8.157383,-7.83917 -14.505287,-6.67886 -7.499833,1.37088 -13.213643,6.66534 -14.166869,13.44812 -1.080511,7.68844 0.519875,14.78534 5.285239,21.04727 5.026519,6.60513 16.169727,10.66257 24.15607,8.60641 6.907624,-2.45288 13.61332,-4.45074 19.878579,-7.388 6.436035,-3.01733 12.765197,-5.23523 20.038756,-4.89172 8.24015,0.38919 13.9993,3.63318 16.16267,10.0585 1.99483,5.92475 0.27042,10.20413 -6.49482,15.75071 1.1432,2.10671 2.25777,4.30483 3.50488,6.42498 1.84475,3.13617 3.29916,6.70142 5.8007,9.2031 3.40223,3.40249 7.63514,5.97436 11.52466,9.32358 -0.14392,2.05654 -0.31454,3.69079 -0.45489,5.32763 -0.43421,5.06424 -2.08197,10.40485 -1.019,15.1348 1.97441,8.78561 2.17821,17.18322 -0.80577,25.87332 -1.69725,1.58514 -2.98161,3.1477 -4.51835,4.40076 -8.49824,6.92956 -19.92751,4.36434 -23.51666,-5.21518 -1.265077,-3.37656 1.09098,-8.4957 4.53108,-9.84488 4.1232,-1.6171 7.05231,0.0237 8.64608,4.83291 0.33507,1.01108 0.7022,2.01154 1.12125,3.2071 4.28547,-4.34861 4.69755,-11.06476 1.40446,-17.91041 -4.61497,-9.59356 -13.29803,-15.90118 -20.658872,-15.09356 1.220169,3.76172 3.254379,7.50278 3.445671,11.33581 0.190529,3.818 -0.583939,8.26209 -2.52256,11.47345 -2.936546,4.86447 -10.240952,5.36191 -13.298218,1.33734 -1.355865,-1.78485 -1.209015,-4.71124 -1.744286,-7.11947 2.257111,-0.16904 4.512734,-0.41919 6.772179,-0.4603 0.726616,-0.0132 1.463265,0.52451 2.25428,0.83316 1.427544,-11.11276 -7.943252,-18.02838 -22.377693,-16.35431 4.933357,9.98035 7.174538,20.11182 1.500107,30.70728 -3.32695,2.74689 -6.097832,5.77106 -9.465164,7.81036 -2.425465,1.46884 -5.931855,2.77118 -8.454998,2.14109 -6.257893,-1.56272 -8.539688,-5.78101 -7.78999,-11.45414 0.789223,-5.97229 5.037388,-6.0899 9.504563,-5.63681 1.409118,-9.4859 -3.178757,-17.92859 -11.088425,-21.30499 -3.162239,-1.34985 -4.693569,-0.55484 -5.214928,2.70254 -0.725776,4.53455 -1.455295,9.06855 -2.439007,13.81611 -4.023481,7.1596 -10.739351,10.15225 -17.625812,12.52591 -5.967972,2.057 -12.267444,-0.78745 -13.403419,-5.92362 -0.43411,-1.9628 0.570618,-5.02466 2.035466,-6.37689 1.149266,-1.06091 4.019367,-0.3371 6.117348,-0.24045 0.597747,0.0276 1.168798,0.63437 1.922812,1.07538 0.406088,-7.84512 -0.620735,-8.88443 -7.953401,-8.24408 C 4.207129,398.17096 2.610681,398.66696 1.000001,399 1,378.97909 1,358.95822 1.372344,338.77219 c 0.623673,-0.38245 1.054138,-0.56726 1.100372,-0.82181 1.522629,-8.38349 3.087191,-16.76062 4.47498,-25.16687 1.129888,-6.84406 1.582707,-13.82947 3.130533,-20.5697 6.261989,-27.26874 15.368936,-53.53011 27.687842,-78.7282 10.053128,-20.56346 21.487839,-40.21655 35.121723,-58.59338 m 164.159446,8.47267 c 2.63448,-4.5241 1.43349,-7.87096 -3.88455,-11.26996 -7.82898,-5.00383 -16.51163,-4.35545 -25.15514,-3.82922 -0.90979,0.0554 -1.76167,1.06218 -3.69462,2.30584 12.87089,1.39835 22.3938,6.29163 28.32545,18.46735 1.70787,-2.23662 2.8169,-3.689 4.40886,-5.67401 M 92.611481,346.00238 c 0.827491,0.0667 1.678375,0.0319 2.478836,0.21609 6.997653,1.6106 8.206463,0.62977 7.935833,-6.58078 -0.0296,-0.78826 -0.26829,-1.56869 -0.47384,-2.70593 -5.869174,1.87857 -12.266208,1.77185 -17.021014,7.64429 2.493393,0.55447 4.361557,0.96991 7.080185,1.42633 M 360.54547,334.52786 c -0.90497,4.6045 -1.80993,9.20902 -2.71493,13.81351 0.48498,0.32947 0.96994,0.65897 1.45489,0.98843 1.89273,-1.71862 4.85983,-3.13891 5.43845,-5.22247 0.98547,-3.54874 1.0892,-7.74692 -4.17841,-9.57947 z"
       id="path133645" /><path
       fill="#8291c7"
       opacity="1"
       stroke="none"
       d="M 25.152409,511.02435 C 20.834494,497.5582 16.516581,484.09201 12.448708,469.91656 12.801628,465.05978 12.830976,460.9089 13.022395,456.7655 13.44614,447.59335 10.811817,439.42068 5.2093,432.17734 4.473043,427.95493 3.766336,423.72708 2.985795,419.51285 2.678942,417.85611 2.207003,416.22995 1.40512,414.79492 1,409.97791 1,404.95581 1.000001,399.46686 c 1.61068,-0.7999 3.207128,-1.2959 4.834482,-1.43796 7.332666,-0.64035 8.359489,0.39896 7.953401,8.24408 -0.754014,-0.44101 -1.325065,-1.04782 -1.922812,-1.07538 -2.097981,-0.0967 -4.968082,-0.82046 -6.117348,0.24045 -1.464848,1.35223 -2.469576,4.41409 -2.035466,6.37689 1.135975,5.13617 7.435447,7.98062 13.403419,5.92362 6.886461,-2.37366 13.602331,-5.36631 17.78138,-12.19095 7.05709,22.73657 13.623981,45.31741 25.727073,65.90551 12.635628,21.49399 27.273194,41.22187 47.12512,56.54627 5.27283,4.07025 11.59764,6.77771 17.27687,10.40967 -1.52024,2.18536 -2.82241,4.11499 -4.24546,5.95093 -5.51224,7.11181 -11.17972,14.06518 -19.83617,17.5476 -2.128244,-1.71271 -3.947481,-3.45703 -6.114603,-4.41095 -19.758621,-8.69696 -38.573875,-18.84973 -54.579456,-33.66137 -4.535175,-4.1969 -9.561943,-7.86249 -14.363258,-11.77179 -2e-6,0 0.07774,-0.0291 0.0026,-0.21332 -0.214874,-0.48169 -0.435621,-0.69556 -0.737373,-0.82581 z"
       id="path133655" /><path
       fill="#8290c7"
       opacity="1"
       stroke="none"
       d="m 410,752 c -17.35422,0 -34.70847,0 -52.67975,-0.30212 -2.73288,-2.15345 -4.96213,-3.89124 -6.94586,-5.87458 -11.89725,-11.89508 -22.37787,-24.93426 -31.07996,-39.34399 -7.49237,-12.4065 -13.83581,-25.32355 -16.89407,-39.64832 -0.8262,-3.86993 -2.05206,-7.65448 -2.89133,-10.73297 1.20917,-6.23309 2.35877,-12.15918 3.88617,-18.08325 5.20352,1.9173 10.02927,3.83258 14.82672,5.81665 -0.0283,0.0688 -0.16305,0.006 0.003,0.30701 0.81613,0.46252 1.46631,0.62396 2.41282,0.94061 4.91113,5.78619 9.48013,11.45551 14.15127,17.03943 7.62808,9.11865 16.77216,16.38733 27.27176,22.37787 3.55472,11.18194 8.64108,21.25909 15.96963,29.91345 8.97321,10.59644 18.59647,20.64038 27.81232,31.03528 1.69449,1.91125 2.78699,4.35626 4.15735,6.55493 z"
       id="path133657" /><path
       fill="#7471bd"
       opacity="1"
       stroke="none"
       d="m 303.01743,638.01269 c -1.14963,5.92615 -2.29923,11.85224 -3.5084,18.08533 0.83927,3.07849 2.06513,6.86304 2.89133,10.73297 3.05826,14.32477 9.4017,27.24182 16.89407,39.64832 8.70209,14.40973 19.18271,27.44891 31.07996,39.34399 1.98373,1.98334 4.21298,3.72113 6.47717,5.87458 C 350.97885,752 344.9577,752 338.46826,752 c -1.54587,-0.66638 -2.55621,-1.74243 -3.71207,-1.93219 -6.96975,-1.14435 -13.97283,-2.08575 -21.54873,-3.45319 -6.40924,-4.8327 -12.75009,-7.89343 -20.65766,-7.65692 -8.58624,-5.01574 -16.53097,-10.28869 -21.67376,-19.07452 -0.33179,-0.46216 -0.58557,-0.68097 -0.85993,-0.89472 -0.0206,0.005 0.009,-0.0256 -0.0196,-0.32879 -0.40301,-0.73474 -0.77719,-1.16638 -1.10443,-1.60291 0.0469,-0.005 -0.003,0.0755 0.0291,-0.31067 -0.42785,-1.7901 -0.61258,-3.37237 -1.39023,-4.56958 -6.36151,-9.79431 -9.41537,-20.7948 -11.97297,-32.00305 -1.95487,-8.56665 -2.46442,-17.01599 1.01396,-25.38922 1.05289,-2.53448 1.54071,-5.30377 2.3515,-7.93506 0.0641,0.0305 -0.0771,0.0164 0.3465,0.0716 1.19238,1.40771 2.5646,2.7304 2.63312,4.11749 0.48459,9.81299 1.97961,11.57403 11.70233,12.89679 6.21625,0.8457 13.23761,-4.03882 14.49133,-10.22986 0.41022,-0.37231 0.70725,-0.51703 1.30328,-0.70087 0.71399,-0.42395 1.12897,-0.80883 1.63999,-1.3985 0.30926,-0.43389 0.5693,-0.57916 1.27426,-0.67871 4.49631,-1.91705 2.44754,-5.583 2.59384,-8.41601 0.35864,-6.94464 1.65668,-7.79334 8.10932,-4.49842 z"
       id="path133659" /><path
       fill="#7471bc"
       opacity="1"
       stroke="none"
       d="m 410.42847,752 c -1.79883,-2.19867 -2.89133,-4.64368 -4.58582,-6.55493 -9.21585,-10.3949 -18.83911,-20.43884 -27.81232,-31.03528 -7.32855,-8.65436 -12.41491,-18.73151 -15.58569,-29.9718 2.08133,-0.10626 3.81751,0.20917 5.85864,0.73803 8.46903,2.07947 16.5791,4.24177 24.80991,5.74189 12.28549,2.23907 24.5206,4.48388 34.86313,12.12402 5.94302,4.3902 11.37777,9.27942 12.83246,17.12677 -2.25333,2.53705 -6.80948,4.29334 -3.36206,8.83978 3.17944,4.19306 9.22052,3.16474 11.48211,-2.02899 0.94208,-2.16339 1.19596,-4.6264 1.64316,-6.46222 8.19598,6.21814 16.34842,12.4032 24.50089,18.58832 -9.41517,2.29816 -18.75611,4.98871 -28.26587,6.78638 -9.94043,1.87909 -20.04456,2.89007 -30.0701,4.3294 -0.39002,0.0561 -0.70697,0.62073 -0.89743,1.36353 C 414.28564,752 412.57129,752 410.42847,752 Z"
       id="path133661" /><path
       fill="#e6e0cb"
       opacity="1"
       stroke="none"
       d="m 730.68195,503.01733 c -0.60181,3.09827 -1.63306,6.1764 -2.95356,9.75318 -0.48431,0.76483 -0.61254,1.06012 -0.67395,1.3844 0,0 -0.006,-0.1001 -0.31347,-0.099 -1.61316,0.97595 -2.90961,1.96393 -4.22687,2.92346 -11.36017,8.27484 -22.05902,17.729 -34.22882,24.56311 -23.57001,13.23608 -47.9632,25.0072 -72.03546,37.34601 -1.75116,0.89752 -3.66541,1.47656 -5.89008,2.18396 -12.75391,-2.06976 -24.23279,-6.67957 -35.55359,-12.47199 -6.87219,-5.4129 -14.87305,-9.4887 -20.06897,-15.85406 -14.24359,-17.44959 -27.24579,-35.90918 -40.90759,-53.84076 -2.00961,-2.63773 -4.84665,-6.38675 -7.45133,-6.51282 -8.91271,-0.43155 -17.66613,1.61777 -24.14852,8.3858 -8.26612,8.63028 -16.10776,17.66907 -24.07377,26.58417 -7.29751,8.16699 -14.25219,16.65839 -21.83923,24.54383 -9.07629,9.43316 -17.56296,19.62896 -29.53879,25.81305 -1.14877,0.5932 -1.84237,2.06793 -3.11856,3.22338 -14.33041,4.80127 -28.09933,10.53125 -43.7507,8.08637 -1.91278,-1.23255 -3.71475,-2.20892 -4.97131,-3.65814 -7.22986,-8.33863 -16.66037,-9.65851 -26.71326,-8.12403 -7.41348,1.13153 -14.29245,-0.0258 -20.30859,-4.10284 -6.42868,-4.35663 -13.07962,-4.86548 -20.34766,-3.55103 -5.49945,0.99463 -11.0697,1.59748 -16.71423,2.04956 -11.80478,-7.19079 -21.07929,-16.59698 -28.83609,-28.01373 -1.24568,-2.1532 -2.42868,-3.95679 -3.58594,-5.77673 -10.23261,-16.09223 -17.46849,-33.48212 -22.44006,-51.85156 5.0747,3.90612 10.1338,7.83276 15.22834,11.71283 5.53461,4.21517 10.53545,9.86303 16.77747,12.25991 11.75295,4.5131 23.44511,11.45798 37.13487,3.75614 9.72052,-5.46878 20.9798,-4.85114 31.59958,-2.19168 12.04666,3.01675 23.77658,2.12478 35.86899,0.30923 13.36081,-2.00595 25.18668,2.13367 34.20267,12.77539 1.48565,1.75354 2.96145,3.5155 4.1759,4.95777 9.96115,-4.66089 19.74408,-8.6233 28.89761,-13.71668 7.28742,-4.05505 6.89737,-14.28775 -0.006,-17.91592 -5.56897,-2.92704 -10.31772,-0.6594 -10.75275,5.58197 -0.25491,3.65713 -2.00415,5.43155 -5.1514,5.29287 -3.37268,-0.14862 -5.65179,-1.90441 -6.05179,-5.9281 -0.8099,-8.14685 3.47315,-13.48224 9.04279,-18.37875 4.11191,-3.61493 7.87067,-7.668 12.20422,-10.97961 2.32227,-1.77466 5.48612,-3.22187 8.34113,-3.36103 5.59161,-0.27252 11.27325,1.03452 16.84161,0.63318 4.98029,-0.35895 9.90991,-1.95831 14.75998,-3.36249 2.45722,-0.71139 4.6893,-2.2005 7.89612,-3.76352 0,2.68265 -0.002,4.44431 3e-4,6.206 0.0157,12.11239 0.016,12.11255 12.3429,12.11261 27.98413,1.2e-4 55.96909,0.10971 83.95151,-0.10785 4.65576,-0.0362 5.85431,1.31604 5.81354,5.86755 -0.13697,15.27362 4.01141,17.30982 14.41461,21.79746 5.48468,2.36587 10.01428,6.93051 15.01013,10.45273 1.66876,1.17645 3.44617,2.19879 5.17389,3.29156 0.40997,-0.26465 0.82001,-0.5293 1.22998,-0.79394 -0.62738,-3.20942 -1.25476,-6.41877 -1.8764,-9.59852 7.68872,-2.14514 10.26043,-0.69287 12.00647,6.75873 1.17932,5.03345 1.72918,10.60553 7.88037,12.05811 2.40362,0.56769 5.432,0.18567 7.6275,-0.8866 0.89166,-0.43542 0.32239,-3.86212 0.37573,-5.01538 7.06647,0.45245 15.06543,-0.242 22.30597,1.77972 6.75476,1.88599 13.3053,2.60596 20.0658,2.26368 2.37646,-0.12043 5.09668,-1.25574 6.9353,-2.79383 6.61041,-5.52984 12.97626,-11.35931 19.3136,-17.2066 8.93261,-8.24191 19.42077,-9.19516 31.10956,-6.85053 M 261.59097,534.9353 c 1.79511,0.69593 3.54242,1.76972 5.39591,2.00415 3.22754,0.40833 6.98776,0.2154 6.80963,-4.17395 -0.11408,-2.81012 -1.26181,-6.6698 -3.2912,-7.98736 -1.83328,-1.19025 -6.51547,-0.54065 -8.06577,1.08563 -1.60632,1.68506 -0.95767,5.51971 -0.84857,9.07153 m 62.79355,27.09357 c 2.61725,-3.36878 2.38858,-6.53711 -0.48102,-9.69177 -2.04806,-2.25153 -4.2955,-3.18354 -6.92541,-1.28992 -2.63745,1.89899 -5.53726,3.70117 -4.15433,7.91992 1.46869,4.48053 5.0582,3.98163 8.48389,3.98725 0.80038,10e-4 1.60119,-0.28022 3.07687,-0.92548 m -21.39706,-29.67419 c 1.61248,1.21765 3.11426,3.15887 4.87188,3.42785 1.4506,0.22199 4.10343,-1.19433 4.59748,-2.5 0.63,-1.66516 0.18356,-4.33069 -0.85047,-5.84875 -0.86166,-1.26502 -4.15316,-2.53351 -4.77261,-1.9881 -1.72809,1.52179 -2.62741,3.98474 -3.84628,6.909 z"
       id="path133663" /><path
       fill="#7572bb"
       opacity="1"
       stroke="none"
       d="m 242.09219,543.97119 c 7.68216,11.07477 16.95667,20.48096 28.31461,27.68897 -11.81778,1.34961 -21.05835,-4.1507 -29.15195,-10.99482 -10.23569,-8.65545 -19.53023,-18.42382 -29.27211,-28.06927 -7.12919,-14.99414 -14.23012,-29.62479 -21.29852,-44.27118 -2.9409,-6.09378 -5.81247,-12.22104 -8.6841,-18.71374 -0.33487,-2.08655 -0.70122,-3.79239 -1.09387,-5.91071 -0.6553,-4.80856 -0.88281,-9.31461 -2.04636,-13.56433 -0.85766,-3.13257 1.14444,-7.71259 -3.8535,-9.61655 -0.68051,-6.48212 -1.3537,-12.49878 -1.85145,-18.83841 4.93033,-5.7839 2.59651,-12.06707 2.17714,-18.11361 -0.0142,-0.20487 -0.8571,-0.35227 -1.59989,-0.80405 -0.10368,-3.36502 -0.01,-6.46072 0.27744,-9.53836 0.96504,-10.34229 1.34817,-20.79282 3.14509,-30.99207 3.48877,-19.80215 10.75383,-38.22922 23.28795,-54.1857 6.21967,-7.91793 13.02696,-15.37426 19.86547,-23.18774 0.78111,-0.87128 1.26518,-1.5943 1.74923,-2.31729 9.799,-0.33457 16.2717,-5.62836 21.28165,-14.22687 6.91447,-2.97977 13.28711,-5.64346 19.65298,-7.90683 -0.24984,1.35089 -0.57925,2.28882 -0.72143,3.2543 -0.70636,4.79621 1.47723,8.43332 5.23874,10.89841 4.07855,2.67288 8.90606,1.76715 12.44269,-1.70138 3.28912,-4.80515 5.69564,-10.05982 11.17938,-13.43354 2.13598,-1.31412 1.89459,-6.49251 3.01224,-11.03227 1.75314,3.26419 3.26229,6.07414 4.81045,9.69563 0.69821,4.66422 0.72339,8.78095 2.18845,12.29789 1.58236,3.79849 0.22439,5.28298 -2.86521,6.36749 -7.01501,2.46234 -9.96881,12.06448 -5.66595,18.25988 2.78488,4.00977 6.54019,4.75205 10.91961,3.6308 2.72162,-0.69677 5.37714,-1.65048 8.09543,-2.36236 2.59384,-0.67929 4.45231,0.20605 4.30631,3.09753 -0.23261,4.60581 -0.31958,9.31836 -1.47959,13.71915 -0.36142,1.37131 -4.00012,1.86255 -6.11273,2.81402 -0.20767,0.0935 -0.23333,0.5911 -0.34347,0.90119 -1.07892,0.0498 -2.15784,0.0996 -3.91556,-0.1651 -3.94174,-0.78259 -7.21338,-1.19727 -10.46609,-1.72779 -15.26319,-2.48947 -28.83649,1.43394 -40.8696,10.90506 -1.81427,1.42798 -3.10706,3.51847 -4.64106,5.3025 0,0 -0.0729,-0.0272 -0.28079,0.0338 -0.41231,0.32358 -0.6167,0.58618 -0.82109,0.84875 -1.42036,1.25177 -2.84071,2.50354 -4.92546,3.88648 -1.72284,0.52606 -3.01741,0.65692 -3.80185,1.35827 -5.5421,4.9553 -10.92082,10.09412 -16.49205,15.01542 -1.36912,1.20947 -3.1851,2.39556 -4.92026,2.61731 -5.13597,0.65643 -7.2538,3.61535 -6.19767,8.61789 0.37564,1.77935 -0.085,4.01849 -0.90075,5.68759 -0.83975,1.71814 -2.58001,2.99539 -3.92283,4.46866 -2.71848,2.9826 -2.68654,5.50311 1.24354,7.36416 -2.47357,5.1918 -0.42016,12.03363 -5.93393,16.17856 -0.54707,0.41125 -0.82368,2.11404 -0.43788,2.68506 2.74837,4.06769 0.0256,7.42773 -0.91568,11.15759 -0.81813,3.24188 -0.51202,6.76746 -0.90876,10.93344 -0.55338,4.26197 -2.73328,7.99207 1.09458,10.95529 0.68003,5.67389 1.36005,11.34775 2.11238,17.67267 0.20594,0.97391 0.43087,1.2096 0.74712,1.35807 0.42905,1.07055 0.85808,2.14111 1.04755,3.77011 -0.26703,1.18084 -0.48786,1.87243 -0.29357,2.41552 4.40058,12.30222 8.74482,24.62613 13.31368,36.86609 4.2917,11.49741 8.33427,23.13153 13.46782,34.25244 2.57733,5.58344 4.8058,12.22602 11.71348,14.69794 M 231.01518,323.16223 c 2.34596,3.71683 4.78862,1.52628 6.25565,-0.47113 0.67837,-0.92361 -0.17458,-4.44589 -1.13851,-4.84497 -4.04272,-1.67371 -5.12167,1.11856 -5.11714,5.3161 z"
       id="path133665" /><path
       fill="#eb8897"
       opacity="1"
       stroke="none"
       d="m 639.17438,379.36328 c -11.93463,3.60953 -23.59925,3.96561 -35.20716,0.60251 -21.03222,-6.09372 -36.53326,-23.97409 -39.05511,-46.76993 -2.06006,-18.62134 3.32361,-34.48678 16.81085,-47.30319 11.05731,-10.50726 24.26611,-15.27328 39.8573,-15.11759 15.74878,0.15729 28.6626,6.05723 39.13318,16.84269 12.61768,12.9971 17.41821,28.863 14.37225,47.14349 -2.91772,17.51108 -11.73413,30.77509 -26.57751,40.15808 -2.78076,1.75784 -5.97247,2.86554 -9.3338,4.44394 z"
       id="path133667" /><path
       fill="#7c7aad"
       opacity="1"
       stroke="none"
       d="m 207.36327,380.83322 c -4.20795,-1.66586 -4.23989,-4.18637 -1.52141,-7.16897 1.34282,-1.47327 3.08308,-2.75052 3.92283,-4.46866 0.81578,-1.6691 1.27639,-3.90824 0.90075,-5.68759 -1.05613,-5.00254 1.0617,-7.96146 6.19767,-8.61789 1.73516,-0.22175 3.55114,-1.40784 4.92026,-2.61731 5.57123,-4.9213 10.94995,-10.06012 16.49205,-15.01542 0.78444,-0.70135 2.07901,-0.83221 3.52135,-1.20629 -9.91298,12.71557 -20.25011,25.37808 -30.46318,38.13989 -1.5289,1.91046 -2.47614,4.28644 -3.97032,6.64224 z"
       id="path133669" /><path
       fill="#e7e1cd"
       opacity="1"
       stroke="none"
       d="m 433.47043,336.96857 c -5.49454,-6.99317 -10.62085,-14.04255 -15.76114,-21.11118 5.0712,-4.03278 12.50061,-3.55844 19.09534,1.76721 -0.68674,1.32999 -1.82569,2.67414 -2.04252,4.15348 -0.34313,2.3406 -0.86569,5.26846 0.21198,6.9981 0.77841,1.24927 4.02191,1.02646 6.18503,1.32001 0.96759,0.13126 1.98181,-0.0812 3.37359,-0.17044 0.0268,0.82062 -0.11523,2.12503 -0.75567,2.45132 -3.24161,1.65152 -6.6127,3.04886 -10.30661,4.5915 z"
       id="path133671" /><path
       fill="#7875af"
       opacity="1"
       stroke="none"
       d="m 242.01755,543.62921 c -6.83304,-2.12994 -9.06151,-8.77252 -11.63884,-14.35596 -5.13355,-11.12091 -9.17612,-22.75503 -13.46782,-34.25244 -4.56886,-12.23996 -8.9131,-24.56387 -13.31368,-36.86609 -0.19429,-0.54309 0.0265,-1.23468 0.35009,-2.07061 4.03646,9.66766 7.77685,19.54886 11.78073,29.6734 5.23509,18.61285 12.47097,36.00274 22.70358,52.09497 1.15726,1.81994 2.34026,3.62353 3.58594,5.77673 z"
       id="path133673" /><path
       fill="#fbfaf9"
       opacity="1"
       stroke="none"
       d="m 279.39444,396.16299 c 7.23956,-2.51956 11.1525,-0.86325 11.64343,4.38947 0.3382,3.61883 -1.06216,6.59097 -4.35586,7.37396 -2.29062,0.54453 -5.97876,0.0103 -7.32376,-1.53653 -1.52854,-1.75793 -1.24439,-5.1701 -1.51468,-7.88644 -0.0637,-0.64011 0.8081,-1.37332 1.55087,-2.34046 z"
       id="path133675" /><path
       fill="#fbfaf9"
       opacity="1"
       stroke="none"
       d="m 326.13379,432.42191 c 3.77017,-4.57612 7.23523,-3.34748 10.95746,-0.43497 3.06439,2.39776 1.7243,4.83218 0.74621,7.52981 -1.33285,3.67618 -4.37948,4.31446 -7.24014,3.30311 -2.12918,-0.75272 -4.1337,-2.89774 -5.30286,-4.93415 -0.69546,-1.21139 0.33365,-3.4129 0.83933,-5.4638 z"
       id="path133677" /><path
       fill="#7e7cad"
       opacity="1"
       stroke="none"
       d="m 248.44861,331.07819 c 1.19,-1.73218 2.48279,-3.82267 4.29706,-5.25065 12.03311,-9.47112 25.60641,-13.39453 40.8696,-10.90506 3.25271,0.53052 6.52435,0.9452 10.06463,1.66486 -0.80234,0.62311 -1.88208,0.99457 -3.29513,1.45142 -15.79563,-3.01441 -30.35239,-1.06546 -43.67408,7.83133 -2.61906,1.74914 -5.27768,3.43905 -8.26208,5.2081 z"
       id="path133679" /><path
       fill="#faf9f0"
       opacity="1"
       stroke="none"
       d="m 268.29846,341.61856 c 2.54306,-1.50558 5.04907,-3.74606 7.32077,-3.52939 3.21158,0.30628 4.4184,3.86759 3.05225,6.52667 -0.85929,1.6724 -3.77445,3.08835 -5.82419,3.16874 -3.38892,0.13287 -5.4805,-1.95972 -4.54883,-6.16602 z"
       id="path133681" /><path
       fill="#faf9ef"
       opacity="1"
       stroke="none"
       d="m 380.29916,400.27667 c -1.44091,3.5466 -4.07632,4.5604 -6.94684,3.45389 -1.4385,-0.55447 -3.04553,-2.68695 -3.16513,-4.21613 -0.22827,-2.91906 0.96775,-5.68481 4.71018,-5.51846 3.64627,0.16202 6.58786,1.2627 5.40179,6.2807 z"
       id="path133683" /><path
       fill="#fbf9f0"
       opacity="1"
       stroke="none"
       d="m 411.40366,408.21082 c -1.98505,1.43759 -4.3042,3.80679 -5.4841,3.33383 -1.98243,-0.79462 -3.24027,-3.39695 -4.80298,-5.23868 2.35861,-1.42856 4.63308,-3.82828 7.09692,-4.04166 3.13019,-0.27105 4.38596,2.40674 3.19016,5.94651 z"
       id="path133685" /><path
       fill="#f9f8ee"
       opacity="1"
       stroke="none"
       d="m 210.14334,446.12946 c 0.99875,-2.57099 1.99703,-5.17841 4.99339,-3.43732 1.33005,0.77286 2.48688,2.72848 2.68381,4.27914 0.15024,1.18299 -1.13184,3.47895 -2.13058,3.7031 -3.05452,0.68542 -4.99762,-1.0549 -5.54662,-4.54492 z"
       id="path133687" /><path
       fill="#faf9ef"
       opacity="1"
       stroke="none"
       d="m 235.02917,494.21484 c 1.49001,-1.56906 2.94252,-3.57748 4.46119,-3.62884 1.11956,-0.0379 2.80989,2.33224 3.29383,3.91971 0.25156,0.8251 -1.37217,3.01724 -2.47752,3.29809 -2.43214,0.61804 -5.15684,0.54758 -5.2775,-3.58896 z"
       id="path133689" /><path
       fill="#faf9f0"
       opacity="1"
       stroke="none"
       d="m 390.19147,509.23398 c -2.18579,-0.51752 -4.28516,-1.00928 -5.81089,-2.22244 -0.46084,-0.36643 0.27881,-3.59793 1.15641,-3.99439 1.56076,-0.70508 3.64645,-0.24826 5.51257,-0.27743 -0.18387,2.08108 -0.36774,4.16217 -0.85809,6.49426 z"
       id="path133691" /><path
       fill="#f5f6f9"
       opacity="1"
       stroke="none"
       d="m 200.20557,432.66284 c -4.0497,-2.68771 -1.8698,-6.41781 -1.28522,-10.25308 5.22261,2.41589 5.5896,5.39758 1.28522,10.25308 z"
       id="path133693" /><path
       fill="#e6e0cc"
       opacity="1"
       stroke="none"
       d="m 424.26959,360.93335 c 2.71552,-2.98077 5.84372,-5.9252 9.30564,-8.92187 1.50967,3.17282 -2.00925,7.91335 -6.41208,8.93167 -0.78687,0.182 -1.65189,0.0263 -2.89356,-0.01 z"
       id="path133695" /><path
       fill="#e7e1cd"
       opacity="1"
       stroke="none"
       d="m 434.41962,344.94595 c -0.67856,-1.36273 -1.01828,-2.79821 -1.3151,-4.61068 2.9509,0.48416 3.99033,1.95782 1.3151,4.61068 z"
       id="path133697" /><path
       fill="#7e7cad"
       opacity="1"
       stroke="none"
       d="m 247.255,331.94568 c -0.0479,-0.19562 0.15651,-0.45822 0.60242,-0.80139 0.0443,0.19107 -0.15292,0.46274 -0.60242,0.80139 z"
       id="path133699" /><path
       fill="#7875af"
       opacity="1"
       stroke="none"
       d="m 202.811,451.71881 c -0.28402,0.10181 -0.50895,-0.13388 -0.69113,-0.70401 0.18726,-0.0136 0.42308,0.22009 0.69113,0.70401 z"
       id="path133701" /><path
       fill="#faf9ef"
       opacity="1"
       stroke="none"
       d="m 275.68469,130.99533 c 3.00556,-3.73009 6.3837,-4.03276 9.8906,-1.82466 2.91119,1.83301 4.5317,4.76453 3.09662,8.07745 -1.5275,3.52616 -4.79038,4.8284 -8.59491,4.23369 -3.79441,-0.59314 -5.17069,-3.17795 -5.06141,-6.74655 0.0349,-1.13838 0.28376,-2.27022 0.6691,-3.73993 z"
       id="path133703" /><path
       fill="#faf9ee"
       opacity="1"
       stroke="none"
       d="m 413.97702,184.62091 c 6.46167,-1.09726 10.53943,2.08278 8.38596,6.26312 -0.90763,1.7619 -3.24653,3.55768 -5.1362,3.80611 -1.60126,0.21051 -4.68403,-1.52113 -4.98142,-2.86476 -0.46811,-2.11481 0.85184,-4.6254 1.73166,-7.20447 z"
       id="path133705" /><path
       fill="#faf9ef"
       opacity="1"
       stroke="none"
       d="m 322.54083,123.3819 c 4.92856,-1.14905 6.93402,1.61459 7.29737,5.38179 0.34234,3.54945 -2.83423,4.24676 -5.45481,4.05049 -1.45129,-0.10871 -3.89194,-1.71793 -3.94293,-2.74713 -0.10587,-2.1357 1.0845,-4.33565 2.10037,-6.68515 z"
       id="path133707" /><path
       fill="#faf9ef"
       opacity="1"
       stroke="none"
       d="m 271.72842,119.41426 c -2.53695,1.30033 -5.03186,3.07225 -7.29641,2.81516 -1.25867,-0.1429 -2.13315,-3.66965 -3.14276,-5.59866 2.97067,-1.63943 4.96118,-2.73795 7.51528,-4.14748 3.35892,0.50541 3.61176,3.30051 2.92389,6.93098 z"
       id="path133709" /><path
       fill="#889dcd"
       opacity="1"
       stroke="none"
       d="m 172.97949,422.00409 c 0.6732,6.01669 1.34639,12.03335 1.87195,18.8653 -0.61375,2.69897 -0.5847,4.93499 -1.6311,6.40597 -4.70301,6.61142 -2.31058,12.98404 0.0793,19.72412 0.88417,2.07111 1.83046,3.85321 2.78534,6.04285 4.10169,15.54892 9.96886,29.92773 18.05145,43.41427 2.30349,3.84351 3.94364,8.08454 5.45255,12.19501 -3.5251,-0.26074 -6.85158,0.0521 -9.65741,-1.01025 -6.77496,-2.565 -13.30669,-5.77253 -19.97455,-9.06354 -7.11636,-12.63782 -14.37724,-24.83343 -21.16971,-37.28461 -2.24672,-4.11844 -3.10656,-8.96951 -4.91639,-13.35528 -3.43912,-8.33414 -7.70729,-16.37812 -10.49224,-24.91416 -2.32223,-7.11776 -3.01623,-14.76675 -4.43136,-22.18048 2.68759,-8.5246 2.48379,-16.92221 0.50938,-25.70782 -1.06297,-4.72995 0.58479,-10.07056 1.019,-15.1348 0.14035,-1.63684 0.31097,-3.27109 0.47632,-5.72089 -0.77935,-2.5892 -1.09238,-5.28582 -2.43758,-5.97876 -5.73961,-2.95669 -5.93299,-7.85711 -5.50255,-13.15591 0.26741,-3.29193 0.79303,-6.56753 0.95443,-9.86264 0.88377,-18.04303 5.3204,-35.42218 11.46665,-52.18399 2.83162,-7.72229 4.2779,-17.8891 15.24153,-20.02719 0.15636,-0.0305 0.20905,-0.59262 0.31012,-0.90659 0.4612,-0.0417 0.9224,-0.0833 1.99074,0.17661 2.815,0.0748 5.0615,0.0315 7.22127,-0.42337 2.95407,-0.62232 3.70676,-2.34302 1.83052,-4.90686 0.92858,-1.81485 1.85715,-3.62967 3.33444,-5.73661 8.99179,-2.8868 12.87043,-7.43988 13.64575,-15.66647 0.48343,-5.12965 5.95498,-11.69328 10.87484,-12.27681 1.50665,-0.17869 3.95076,1.08174 4.74122,2.41113 4.16433,7.00364 3.9896,7.31034 -2.1019,13.24074 -0.47511,0.46256 -0.97772,0.91008 -1.38011,1.43201 -3.33538,4.32613 -2.77298,11.73801 1.00556,13.49374 0,0 -0.0592,0.0527 0.006,0.25751 0.32213,0.41501 0.57909,0.62527 0.83603,0.83551 0.83768,0.59332 1.67534,1.18662 2.95021,2.24634 3.17064,0.9783 6.11721,2.40915 8.59848,1.83368 8.17787,-1.89649 12.83182,-7.73441 15.16815,-15.59163 0.42801,-1.43942 0.93183,-2.85631 1.67673,-5.12412 4.17421,4.91983 3.83559,9.72396 3.38594,14.42598 -0.0998,1.04386 -1.5018,2.69791 -2.45114,2.80838 -6.91054,0.80423 -8.67993,6.491 -11.61925,11.54157 -5.36038,5.1441 -10.5713,9.99801 -15.4503,15.16534 -10.89313,11.53693 -18.10805,25.28336 -23.48932,40.08039 -7.25459,19.94809 -9.18785,40.66735 -8.70219,61.68679 0.17401,7.53177 -0.33988,14.61069 -7.51183,20.0419 4.639,1.823 8.5466,3.35862 12.49921,5.25907 1.67528,1.11941 3.30556,1.87399 4.93585,2.62857 z"
       id="path133711" /><path
       fill="#8391c6"
       opacity="1"
       stroke="none"
       d="m 128.65097,421.00879 c 1.71152,7.24823 2.40552,14.89722 4.72775,22.01498 2.78495,8.53604 7.05312,16.58002 10.49224,24.91416 1.80983,4.38577 2.66967,9.23684 4.91639,13.35528 6.79247,12.45118 14.05335,24.64679 20.71103,37.3125 -3.8883,0.54975 -7.56976,0.043 -10.78151,1.04364 -7.98311,2.48743 -15.75203,5.66223 -23.75303,8.24347 -5.26027,-6.17944 -10.42666,-11.9967 -15.47852,-17.91186 -13.3555,-15.63758 -23.497764,-33.23502 -31.641822,-52.051 -5.913131,-13.66171 -11.899574,-27.29168 -17.853325,-40.93579 5.373696,-10.45114 3.132515,-20.58261 -1.800842,-30.56296 14.434441,-1.67407 23.805237,5.24155 22.377693,16.35431 -0.791015,-0.30865 -1.527664,-0.8464 -2.25428,-0.83316 -2.259445,0.0411 -4.515068,0.29126 -6.772179,0.4603 0.535271,2.40823 0.388421,5.33462 1.744286,7.11947 3.057266,4.02457 10.361672,3.52713 13.298218,-1.33734 1.938621,-3.21136 2.713089,-7.65545 2.52256,-11.47345 -0.191292,-3.83303 -2.225502,-7.57409 -3.445671,-11.33581 7.360842,-0.80762 16.043902,5.5 20.658872,15.09356 3.29309,6.84565 2.88101,13.5618 -1.40446,17.91041 -0.41905,-1.19556 -0.78618,-2.19602 -1.12125,-3.2071 -1.59377,-4.80917 -4.52288,-6.45001 -8.64608,-4.83291 -3.4401,1.34918 -5.796157,6.46832 -4.53108,9.84488 3.58915,9.57952 15.01842,12.14474 23.51666,5.21518 1.53674,-1.25306 2.8211,-2.81562 4.51835,-4.40076 m 23.23805,78.85547 c -2.28065,-0.23954 -4.56132,-0.47907 -6.84198,-0.7186 -0.15844,1.55585 -0.96254,3.5463 -0.29123,4.54367 0.65328,0.97058 3.20075,1.66815 4.22409,1.14111 1.36306,-0.70199 2.05642,-2.70428 2.90912,-4.96618 z"
       id="path133713" /><path
       fill="#8593c6"
       opacity="1"
       stroke="none"
       d="m 150.58792,272.10815 c 0.29567,0.37052 0.24298,0.93262 0.0866,0.96314 -10.96363,2.13809 -12.40991,12.3049 -15.24153,20.02719 -6.14625,16.76181 -10.58288,34.14096 -11.46665,52.18399 -0.1614,3.29511 -0.68702,6.57071 -0.95443,9.86264 -0.43044,5.2988 -0.23706,10.19922 5.50255,13.15591 1.3452,0.69294 1.65823,3.38956 2.42473,5.55762 -3.8981,-2.53482 -8.13101,-5.10669 -11.53324,-8.50918 -2.50154,-2.50168 -3.95595,-6.06693 -5.8007,-9.2031 -1.24711,-2.12015 -2.36168,-4.31827 -3.50488,-6.42498 6.76524,-5.54658 8.48965,-9.82596 6.49482,-15.75071 -2.16337,-6.42532 -7.92252,-9.66931 -16.16267,-10.0585 -7.273559,-0.34351 -13.602721,1.87439 -20.038756,4.89172 -6.265259,2.93726 -12.970955,4.93512 -19.953068,6.95694 -0.795853,-2.32922 -1.437233,-4.27859 -1.38435,-6.20895 0.121708,-4.4426 0.581055,-8.87592 0.903381,-13.31302 6.159211,-0.50839 11.185318,-2.87308 14.33033,-8.51254 0.633141,-1.13532 1.579025,-2.15085 2.551438,-3.03351 7.053115,-6.40216 8.283218,-12.77655 4.213844,-21.11203 -0.546257,-1.1189 -0.733383,-2.86862 -0.255188,-3.96274 5.672768,-12.97931 4.002098,-17.74216 -8.684761,-24.08998 -1.324364,-0.66264 -2.638619,-1.34549 -4.020325,-2.05098 6.129372,-5.29002 21.714768,-4.30426 25.885628,0.64815 -2.102165,2.61412 -5.168106,4.79796 -5.695053,7.48054 -0.712113,3.62531 2.125725,6.24241 5.811409,7.58429 4.733497,1.7233 8.726611,0.51395 12.347721,-2.59375 1.35659,-1.16421 2.3439,-2.9945 3.87585,-3.67929 8.18549,-3.65881 8.16005,-10.21052 3.74651,-16.89944 -2.43331,-3.68782 -6.56303,-6.25633 -10.08394,-9.47191 3.70112,-6.8112 13.71341,-9.05892 21.0617,-3.81966 -0.46174,0.43387 -0.80758,0.99399 -1.29565,1.17914 -3.08301,1.16944 -5.81371,3.27205 -4.49308,6.55905 1.02166,2.54286 3.62264,5.20633 6.15838,6.21479 4.15815,1.65367 7.8368,0.16128 10.32604,-4.16681 1.27892,-2.2237 3.70981,-3.78482 5.62012,-5.64536 2.49865,2.74349 5.94902,5.08853 7.2989,8.31294 2.85764,6.82601 1.99996,8.61531 -2.77804,11.59868 -3.14673,1.96478 -6.75887,3.96152 -5.51862,8.41208 1.30226,4.67307 4.91771,6.90967 10.22496,6.91763 z"
       id="path133715" /><path
       fill="#7472bc"
       opacity="1"
       stroke="none"
       d="m 69.689438,417.13849 c 6.254486,13.49979 12.240929,27.12976 18.15406,40.79147 8.144058,18.81598 18.286322,36.41342 31.641822,52.051 5.05186,5.91516 10.21825,11.73242 15.33073,18.20349 -3.21025,3.71478 -6.41882,6.82031 -9.62737,9.92584 -5.84179,-3.33319 -12.1666,-6.04065 -17.43943,-10.1109 -19.851926,-15.3244 -34.489492,-35.05228 -47.12512,-56.54627 -12.103092,-20.5881 -18.669983,-43.16894 -25.471275,-66.11883 0.572346,-4.8692 1.301865,-9.4032 2.027641,-13.93775 0.521359,-3.25738 2.052689,-4.05239 5.214928,-2.70254 7.909668,3.3764 12.497543,11.81909 11.088425,21.30499 -4.467175,-0.45309 -8.71534,-0.33548 -9.504563,5.63681 -0.749698,5.67313 1.532097,9.89142 7.78999,11.45414 2.523143,0.63009 6.029533,-0.67225 8.454998,-2.14109 3.367332,-2.0393 6.138214,-5.06347 9.465164,-7.81036 z"
       id="path133717" /><path
       fill="#7876bc"
       opacity="1"
       stroke="none"
       d="m 59.632767,316.08911 c 0.0047,4.58685 -0.454693,9.02017 -0.576401,13.46277 -0.05288,1.93036 0.588497,3.87973 0.989044,6.25153 -7.516548,2.44464 -18.659756,-1.6128 -23.686275,-8.21793 -4.765364,-6.26193 -6.36575,-13.35883 -5.285239,-21.04727 0.953226,-6.78278 6.667036,-12.07724 14.166869,-13.44812 6.347904,-1.16031 11.063934,0.92196 14.505287,6.67886 -4.195721,0.19809 -7.449917,1.63495 -7.823254,6.27396 -0.436939,5.42926 2.917454,8.09213 7.709969,10.0462 z"
       id="path133719" /><path
       fill="#8b96c4"
       opacity="1"
       stroke="none"
       d="m 192.12912,263.49982 c -3.76067,-1.34674 -4.32307,-8.75862 -0.98769,-13.08475 0.40239,-0.52193 0.905,-0.96945 1.38011,-1.43201 6.0915,-5.9304 6.26623,-6.2371 2.1019,-13.24074 -0.79046,-1.32939 -3.23457,-2.58982 -4.74122,-2.41113 -4.91986,0.58353 -10.39141,7.14716 -10.87484,12.27681 -0.77532,8.22659 -4.65396,12.77967 -13.45608,15.37967 0.79871,-1.11288 1.7771,-2.57324 3.14511,-3.29025 6.05873,-3.17555 7.84908,-8.62992 8.38483,-14.85169 0.77566,-9.00819 -1.15662,-17.15954 -7.44431,-23.99617 -0.73353,-0.79754 -1.07315,-1.95736 -2.27495,-4.23993 4.34856,0.85544 7.7807,1.01458 10.79691,2.21704 10.65114,4.2463 17.7973,11.98095 21.25502,22.95699 1.26588,4.01834 1.33168,7.38332 -3.48183,9.77737 -5.69955,2.83475 -6.00743,5.14551 -3.80296,13.93879 z"
       id="path133721" /><path
       fill="#8492c6"
       opacity="1"
       stroke="none"
       d="m 262.99878,260.0083 c -6.37265,2.6637 -12.74529,5.32739 -19.4877,8.00824 -0.51081,-4.54416 0.7995,-8.21115 4.80522,-11.05798 2.00946,-1.4281 3.0838,-4.17199 5.11592,-6.69254 5.85309,-1.66666 11.1713,-2.96162 16.4895,-4.25658 1.07135,3.69082 2.14267,7.38164 2.84439,11.49962 -3.50219,1.11786 -6.63476,1.80857 -9.76733,2.49924 z"
       id="path133723" /><path
       fill="#8c97c5"
       opacity="1"
       stroke="none"
       d="m 210.99817,276.99402 c 2.63922,-4.90256 4.40861,-10.58933 11.31915,-11.39356 0.94934,-0.11047 2.35132,-1.76452 2.45114,-2.80838 0.44965,-4.70202 0.78827,-9.50615 -3.38594,-14.42598 -0.7449,2.26781 -1.24872,3.6847 -1.67673,5.12412 -2.33633,7.85722 -6.99028,13.69514 -15.16815,15.59163 -2.48127,0.57547 -5.42784,-0.85538 -8.33452,-1.67417 3.26462,-0.71057 6.87149,-0.5852 10.10795,-1.61926 8.96205,-2.86343 13.55198,-12.11192 11.43353,-22.08519 -0.63344,-2.98207 -1.24419,-5.96895 -1.41324,-9.11333 6.19339,5.52543 9.60963,12.46622 10.61328,20.53605 0.3864,3.10672 0.28961,6.33294 -0.0538,9.4533 -0.3063,2.78278 -0.89078,5.8274 -4.98768,5.31696 -3.61678,-0.45062 -5.69602,1.54037 -6.64865,4.68338 -1.06698,3.52032 1.62576,5.01398 4.06796,6.49084 0.70517,0.42646 1.49631,0.71076 2.49148,1.26606 -0.24058,0.92883 -0.72465,1.65185 -1.89257,2.52636 -2.96778,0.67988 -5.2517,1.20829 -6.46528,1.48905 -0.93116,-3.54523 -1.69453,-6.45157 -2.45788,-9.35788 z"
       id="path133725" /><path
       fill="#dfd4be"
       opacity="1"
       stroke="none"
       d="m 236.80577,163.63121 c -1.35049,1.7187 -2.45952,3.17108 -4.16739,5.4077 -5.93165,-12.17572 -15.45456,-17.069 -28.32545,-18.46735 1.93295,-1.24366 2.78483,-2.25045 3.69462,-2.30584 8.64351,-0.52623 17.32616,-1.17461 25.15514,3.82922 5.31804,3.399 6.51903,6.74586 3.64308,11.53627 z"
       id="path133727" /><path
       fill="#8a9ece"
       opacity="1"
       stroke="none"
       d="m 269.91434,245.6539 c -5.31082,1.6505 -10.62903,2.94546 -16.31374,4.30217 -1.14636,-7.45506 -1.92622,-14.97186 -2.78462,-23.24554 10.06689,3.27056 15.13754,10.35217 19.09836,18.94337 z"
       id="path133729" /><path
       fill="#7e7caf"
       opacity="1"
       stroke="none"
       d="m 308.36078,316.9057 c -0.25372,-0.40042 -0.22806,-0.89798 -0.0204,-0.99152 2.11261,-0.95147 5.75131,-1.44271 6.11273,-2.81402 1.16001,-4.40079 1.24698,-9.11334 1.47959,-13.71915 0.146,-2.89148 -1.71247,-3.77682 -4.30631,-3.09753 -2.71829,0.71188 -5.37381,1.66559 -8.09543,2.36236 -4.37942,1.12125 -8.13473,0.37897 -10.91961,-3.6308 -4.30286,-6.1954 -1.34906,-15.79754 5.66595,-18.25988 3.0896,-1.08451 4.44757,-2.569 2.86521,-6.36749 -1.46506,-3.51694 -1.49024,-7.63367 -2.14765,-11.93482 1.98224,6.6619 3.96262,13.77228 5.62686,19.74768 -4.50076,1.414 -8.04541,1.69769 -10.45498,3.49942 -2.86725,2.14392 -2.88727,5.67429 -0.77414,8.92108 2.76062,4.24161 8.01233,7.15863 11.52298,5.85181 2.75125,-1.02411 5.19726,-2.89734 7.96948,-3.82166 1.10791,-0.36932 3.73432,0.51362 3.95636,1.30634 1.96396,7.01154 1.89554,18.79404 -2.61059,24.9834 -1.79697,-0.63471 -3.65162,-1.2898 -5.87006,-2.03522 z"
       id="path133731" /><path
       fill="#8d97c5"
       opacity="1"
       stroke="none"
       d="m 92.186249,345.98187 c -2.293396,-0.43591 -4.16156,-0.85135 -6.654953,-1.40582 4.754806,-5.87244 11.15184,-5.76572 17.021014,-7.64429 0.20555,1.13724 0.44426,1.91767 0.47384,2.70593 0.27063,7.21055 -0.93818,8.19138 -7.935833,6.58078 -0.800461,-0.1842 -1.651345,-0.14935 -2.904068,-0.2366 z"
       id="path133733" /><path
       fill="#817fb1"
       opacity="1"
       stroke="none"
       d="m 262.992,260.4086 c 3.13935,-1.09097 6.27192,-1.78168 9.83796,-2.50351 -0.81446,0.85443 -1.94431,2.11145 -3.33338,2.55304 -3.56668,1.13382 -5.29913,3.19278 -4.50879,6.99551 0.78086,3.75721 2.71924,6.5289 6.85907,6.56574 2.42545,0.0216 4.8573,-0.67926 7.69571,-1.10727 -3.1272,3.41638 -7.95471,4.32211 -12.03326,1.64923 -3.76151,-2.46509 -5.9451,-6.1022 -5.23874,-10.89841 0.14218,-0.96548 0.47159,-1.90341 0.72143,-3.25433 z"
       id="path133735" /><path
       fill="#e7e1cd"
       opacity="1"
       stroke="none"
       d="m 360.90558,334.42368 c 4.9075,1.93673 4.80377,6.13491 3.8183,9.68365 -0.57862,2.08356 -3.54572,3.50385 -5.43845,5.22247 -0.48495,-0.32946 -0.96991,-0.65896 -1.45489,-0.98843 0.905,-4.60449 1.80996,-9.20901 3.07504,-13.91769 z"
       id="path133737" /><path
       fill="#8593c6"
       opacity="1"
       stroke="none"
       d="m 161.70099,267.11426 c 2.20244,2.46066 1.44975,4.18136 -1.50432,4.80368 -2.15977,0.45492 -4.40627,0.49814 -6.87622,0.47189 2.51002,-1.89279 5.28218,-3.53259 8.38054,-5.27557 z"
       id="path133739" /><path
       fill="#8b96c4"
       opacity="1"
       stroke="none"
       d="m 192.93741,264.74216 c -0.2054,0.0494 -0.46236,-0.16083 -0.80341,-0.61069 0.19455,-0.0427 0.47319,0.15414 0.80341,0.61069 z"
       id="path133741" /><path
       fill="#fdfefe"
       opacity="1"
       stroke="none"
       d="m 125.02612,538.40906 c 3.37111,-3.4043 6.57968,-6.50983 9.93602,-9.90705 8.0027,-3.19043 15.77162,-6.36523 23.75473,-8.85266 3.21175,-1.00067 6.89321,-0.49389 10.81957,-0.70105 7.08848,2.92053 13.62021,6.12806 20.39517,8.69306 2.80583,1.06231 6.13231,0.74951 9.99611,1.1875 4.54822,1.45843 8.32231,2.79132 12.09642,4.12426 9.70048,9.2884 18.99502,19.05677 29.23071,27.71222 8.0936,6.84412 17.33417,12.34443 29.25775,11.32001 5.98557,-0.79449 11.55582,-1.39734 17.05527,-2.39197 7.26804,-1.31445 13.91898,-0.8056 20.34766,3.55103 6.01614,4.07703 12.89511,5.23437 20.30859,4.10284 10.05289,-1.53448 19.4834,-0.2146 26.71326,8.12403 1.25656,1.44922 3.05853,2.42559 5.11212,3.94745 3.25549,1.87439 6.05621,3.34155 8.75177,4.98156 20.81238,12.66248 42.36111,23.21222 67.45383,23.63721 11.97668,0.20282 23.95675,0.57452 35.93072,0.4455 8.26853,-0.0891 16.56732,-0.56324 24.78424,-1.47864 11.44379,-1.27503 23.2529,-1.71887 34.13382,-5.04401 17.8844,-5.46521 35.18469,-12.86609 52.66107,-19.63189 9.07123,-3.51179 17.99219,-7.41169 26.98102,-11.1363 1.83844,-0.72711 3.75269,-1.30615 5.50385,-2.20367 24.07226,-12.33881 48.46545,-24.10993 72.03546,-37.34601 12.1698,-6.83411 22.86865,-16.28827 34.22882,-24.56311 1.31726,-0.95953 2.61371,-1.94751 4.27643,-2.91553 -1.69483,5.21405 -3.29468,10.65845 -5.88129,15.58478 -8.16785,15.55627 -16.70514,30.91858 -25.87701,46.50922 -6.8501,0.73718 -12.92286,1.32104 -19.41626,1.81164 -3.38147,0.38282 -6.34223,0.85895 -9.30298,1.33509 7.34491,4.52734 11.35058,10.37292 11.04651,19.08911 -1.74573,3.36535 -3.34449,6.09912 -7.67981,5.13208 -4.5448,-1.01374 -3.79145,-4.3852 -3.63678,-7.41364 0.20044,-3.9248 -2.40454,-5.29858 -5.3902,-5.97601 -4.11554,-0.93372 -7.74384,0.14587 -10.86731,3.27496 -8.8916,8.90772 -8.94556,8.85053 -19.87543,3.0802 -0.26129,-0.13794 -0.62561,-0.0809 -1.17102,-0.13934 -0.64575,0.79443 -1.48962,1.60296 -2.04736,2.57568 -0.73023,1.2735 -1.2345,2.67676 -2.14191,4.31159 -0.35187,4.78137 -0.39783,9.27533 -0.62152,14.06878 -2.81036,1.70868 -5.56164,4.44403 -8.04828,4.22156 -3.89642,-0.34857 -2.69946,-4.50641 -2.91034,-7.37164 -0.29297,-3.98065 -2.69079,-6.08405 -6.51587,-6.06946 -4.94329,0.0189 -9.5415,1.21008 -12.8092,5.90106 -3.8891,4.29364 -6.8717,10.28235 -13.84033,6.80908 -14.55365,-7.25378 -26.59137,0.61756 -40.64899,6.08979 3.05017,0.53741 4.61701,0.92132 6.20612,1.07525 8.21191,0.79578 16.41583,1.89301 24.64837,2.20825 13.40015,0.51313 26.82019,0.5138 40.23255,0.67048 0.57263,0.007 1.1524,-0.59107 2.19189,-0.8454 10.22321,-1.5271 19.98328,-3.11609 30.05194,-4.73902 0.71155,-0.12243 1.11457,-0.21106 1.85749,-0.27893 1.13269,-0.27569 1.92553,-0.57214 3.04486,-0.8955 0.75824,-0.0812 1.18994,-0.13538 1.99701,-0.167 2.47516,-0.53698 4.57495,-1.09662 7.11059,-1.70147 2.1778,-0.0863 3.91986,-0.12745 5.66187,-0.16852 -9.94159,10.37274 -19.3786,21.29394 -29.93073,31.00311 -21.43756,19.72486 -44.64673,37.17249 -70.99591,50.69983 -14.58856,-11.03326 -28.75769,-21.64923 -42.61206,-32.66125 -7.64255,-6.07453 -15.79413,-9.49421 -26.00134,-7.94611 -6.46024,2.99951 -7.71411,6.15784 -5.77362,12.76373 4.56994,15.55738 15.86862,24.38239 30.22027,29.89728 6.85804,2.63532 12.75562,6.23474 17.03571,12.27026 -1.10962,0.53449 -2.21918,1.06897 -3.81427,1.37696 -4.17035,-2.38159 -7.65375,-5.04889 -11.5791,-6.59235 -10.17932,-4.00287 -20.52457,-7.59314 -30.85749,-11.19348 -10.27304,-3.57953 -17.13687,-10.42688 -20.72805,-20.67798 -2.82895,-8.07532 -8.57779,-13.50598 -15.66205,-18.08789 -4.21341,-2.7251 -8.09577,-6.3382 -11.22394,-10.27051 -3.94861,-4.96356 -8.52765,-6.5559 -14.44214,-5.26812 -7.2879,1.58685 -8.77927,5.87902 -4.15146,11.84765 3.66831,4.73114 7.39194,9.42194 10.94486,14.23834 1.07522,1.45765 1.66263,3.27509 2.47345,4.92774 -4.49002,-1.9516 -7.99384,-4.82593 -11.9701,-6.6955 -10.91027,-5.12988 -20.12481,-12.26135 -27.49951,-21.76391 -10.07303,-12.97956 -23.66864,-18.04505 -39.66449,-17.92456 -8.81296,0.0663 -12.01519,3.52044 -11.96103,12.63391 0.0497,8.34192 5.04526,14.44684 10.97257,19.27288 6.91067,5.62671 14.66067,10.22248 21.97952,15.60511 -0.88437,0.5971 -1.85263,1.27679 -2.49597,1.04693 -6.38104,-2.27972 -6.36585,-2.32226 -6.42264,4.414 -1.73617,-0.31542 -3.47235,-0.63085 -5.59244,-0.88793 -10.84478,-5.56885 -19.98886,-12.83753 -27.61694,-21.95618 -4.67114,-5.58392 -9.24014,-11.25324 -14.3584,-17.33563 -1.12619,-0.61621 -1.74893,-0.78095 -2.37167,-0.94562 0,0 0.13479,0.063 0.2167,-0.34912 -5.65548,-7.27979 -13.50476,-9.15546 -21.89492,-9.33576 -1.09931,-0.0236 -3.02631,1.91425 -3.22629,3.15949 -0.72299,4.50128 -0.87235,9.09473 -1.23822,13.65338 -0.30683,0.0615 -0.56687,0.20673 -1.15705,0.7113 -0.80398,0.63935 -1.23101,1.00318 -1.65808,1.36695 -0.29702,0.14471 -0.59405,0.28943 -1.32605,0.78137 -4.47043,2.40723 -8.44629,4.59668 -12.5585,6.48987 -3.94974,1.81848 -6.64645,0.1781 -9.27283,-3.1319 -2.6253,-3.30872 -2.30987,-6.42328 0.11057,-8.8396 1.65649,-1.65356 4.72546,-1.89221 8.21692,-3.14008 -0.65778,-1.35656 -1.23761,-4.12976 -2.94394,-5.49401 -1.06531,-0.85175 -4.20319,-0.14521 -5.74765,0.8706 -2.52863,1.66321 -4.51697,4.14777 -6.73322,6.28583 0,0 0.14127,0.0141 -0.26822,0.0574 -5.188,4.37061 -6.05761,10.22748 -6.59274,16.15741 -1.31995,14.62689 3.58429,28.03412 8.74536,41.24604 1.8068,4.62524 5.38797,8.55725 8.15885,12.80584 0,0 0.0494,-0.0804 0.0544,0.21442 0.3638,0.73529 0.72259,1.17572 1.08139,1.61615 0,0 -0.0298,0.0308 0.0442,0.28186 0.34415,0.4613 0.61432,0.67157 0.88452,0.88184 5.06479,8.54248 13.00952,13.81543 21.80402,19.11102 3.76147,2.13922 6.9862,3.90033 10.21093,5.6615 -15.63791,-4.12006 -31.38519,-7.87012 -46.88653,-12.45233 -20.2144,-5.97535 -39.26636,-14.93677 -57.79791,-24.84723 -20.51131,-10.9693 -40.22062,-23.35291 -57.75753,-38.72205 -14.50391,-12.711 -28.89496,-25.64874 -42.278477,-39.50726 -9.6512,-9.99371 -17.564987,-21.66529 -26.120674,-33.22608 1.750427,-2.46032 3.367836,-4.28308 5.276184,-6.27191 2.467163,-3.70148 4.643387,-7.23681 7.106605,-10.93066 3.486611,-3.71625 6.686226,-7.27411 10.163399,-10.98657 2.324409,-2.00715 4.371246,-3.85968 6.418083,-5.71228 8.5088,-3.81751 14.17628,-10.77088 19.68852,-17.88269 1.42305,-1.83594 2.72522,-3.76557 4.24546,-5.95093 z"
       id="path133743" /><path
       fill="#889dce"
       opacity="1"
       stroke="none"
       d="m 100.94449,561.90759 c -1.899187,2.18769 -3.946024,4.04022 -6.764131,6.01441 -10.271645,1.03112 -18.756889,-2.30683 -26.996086,-6.36835 -8.167614,-4.02618 -16.198292,-8.33008 -24.289032,-12.51215 -5.631062,-12.07605 -11.262125,-24.1521 -16.950627,-36.60308 4.743874,3.53436 9.770642,7.19995 14.305817,11.39685 16.005581,14.81164 34.820835,24.96441 54.579456,33.66137 2.167122,0.95392 3.986359,2.69824 6.114603,4.41095 z"
       id="path133745" /><path
       fill="#8291c6"
       opacity="1"
       stroke="none"
       d="m 42.946159,549.40808 c 8.039822,3.81549 16.0705,8.11939 24.238114,12.14557 8.239197,4.06152 16.724441,7.39947 26.718529,6.52289 -2.705918,3.59088 -5.905533,7.14874 -9.797814,10.82989 -2.890953,-0.58007 -5.067459,-1.36297 -7.291534,-1.97217 -7.299294,-1.9989 -14.615822,-3.93481 -21.925721,-5.89495 -3.963546,-7.0882 -7.927101,-14.17639 -11.941574,-21.63123 z"
       id="path133747" /><path
       fill="#889dcd"
       opacity="1"
       stroke="none"
       d="m 55.033073,571.36304 c 7.164559,1.63641 14.481087,3.57232 21.780381,5.57122 2.224075,0.6092 4.400581,1.3921 7.004539,2.13056 -1.770553,3.57056 -3.946777,7.10589 -6.7808,10.65088 -4.131927,-0.55738 -7.606048,-1.12433 -11.080177,-1.69129 0,0 0.04462,-0.0236 -0.02678,-0.22583 -0.236885,-0.4787 -0.467369,-0.68109 -0.762856,-0.80951 -3.329651,-5.10076 -6.659305,-10.20153 -10.134308,-15.62603 z"
       id="path133749" /><path
       fill="#fbfcfd"
       opacity="1"
       stroke="none"
       d="m 5.131107,432.59759 c 5.68071,6.82309 8.315033,14.99576 7.891288,24.16791 -0.191419,4.1434 -0.220767,8.29428 -0.573188,12.75775 C 9.808029,458.89011 7.388652,447.9469 5.062446,436.98389 4.793883,435.7182 5.043531,434.3425 5.131107,432.59759 Z"
       id="path133751"
       style="fill:#8291c7;fill-opacity:1" /><path
       fill="#807eb0"
       opacity="1"
       stroke="none"
       d="m 303.36246,744.98413 c -3.6182,-1.84625 -6.84293,-3.60736 -10.27591,-5.64844 7.37082,-0.6145 13.71167,2.44623 19.70648,7.20392 -2.89929,-0.30139 -5.9682,-0.88592 -9.43057,-1.55548 z"
       id="path133753" /><path
       fill="#7372bc"
       opacity="1"
       stroke="none"
       d="m 66.076584,588.34943 c 3.354561,0.24194 6.828682,0.80889 10.669662,1.53234 -1.250541,1.97925 -2.86795,3.80201 -4.668213,5.90363 -2.082519,-2.18433 -3.9822,-4.64758 -6.001449,-7.43597 z"
       id="path133755" /><path
       fill="#7372bc"
       opacity="1"
       stroke="none"
       d="m 65.144272,587.25116 c 0.318596,-0.13367 0.54908,0.0687 0.77536,0.57031 -0.225624,0.0474 -0.512047,-0.13043 -0.77536,-0.57031 z"
       id="path133757" /><path
       fill="#889dce"
       opacity="1"
       stroke="none"
       d="m 25.130314,511.28479 c 0.323847,-0.13019 0.544594,0.0837 0.752481,0.60632 -0.212761,0.0348 -0.493669,-0.15551 -0.752481,-0.60632 z"
       id="path133759" /><path
       fill="#7774bb"
       opacity="1"
       stroke="none"
       d="m 376.98386,679.16217 c -7.38578,-5.04315 -15.13578,-9.63892 -22.04645,-15.26563 -5.92731,-4.82604 -10.92291,-10.93096 -10.97257,-19.27288 -0.0542,-9.11347 3.14807,-12.56757 11.96103,-12.63391 15.99585,-0.12049 29.59146,4.945 39.66449,17.92456 7.3747,9.50256 16.58924,16.63403 27.49951,21.76391 3.97626,1.86957 7.48008,4.7439 11.9701,6.6955 -0.81082,-1.65265 -1.39823,-3.47009 -2.47345,-4.92774 -3.55292,-4.8164 -7.27655,-9.5072 -10.94486,-14.23834 -4.62781,-5.96863 -3.13644,-10.2608 4.15146,-11.84765 5.91449,-1.28778 10.49353,0.30456 14.44214,5.26812 3.12817,3.93231 7.01053,7.54541 11.22394,10.27051 7.08426,4.58191 12.8331,10.01257 15.66205,18.08789 3.59118,10.2511 10.45501,17.09845 20.72805,20.67798 10.33292,3.60034 20.67817,7.19061 30.85749,11.19348 3.92535,1.54346 7.40875,4.21076 11.25189,6.66327 -14.23627,5.70001 -28.63083,11.10278 -43.60175,16.22479 -5.04858,-3.12237 -9.96032,-5.46203 -13.90039,-8.91156 -7.86276,-6.88373 -15.04071,-14.54351 -22.78045,-21.57562 -9.68161,-8.79627 -20.40668,-15.83771 -33.59531,-18.36175 -13.04788,-2.49702 -26.06583,-5.15027 -39.09692,-7.73493 z"
       id="path133761" /><path
       fill="#8391c6"
       opacity="1"
       stroke="none"
       d="m 492.97235,663.15546 c 9.85266,-1.56147 18.00424,1.85821 25.64679,7.93274 13.85437,11.01202 28.0235,21.62799 42.24127,32.69506 -7.24249,4.263 -14.66504,8.24018 -22.63849,11.98591 -9.88494,-8.35615 -19.57672,-16.11194 -28.44641,-24.7154 -7.93921,-7.70087 -15.16375,-16.22174 -16.80316,-27.89831 z"
       id="path133763" /><path
       fill="#f5f6f9"
       opacity="1"
       stroke="none"
       d="m 376.91693,679.50165 c 13.09802,2.24518 26.11597,4.89843 39.16385,7.39545 13.18863,2.52404 23.9137,9.56548 33.59531,18.36175 7.73974,7.03211 14.91769,14.69189 22.78045,21.57562 3.94007,3.44953 8.85181,5.78919 13.51157,8.93042 -3.23374,1.2818 -6.65497,2.26416 -10.48572,3.29358 -8.56198,-6.138 -16.71442,-12.32306 -24.9104,-18.5412 -0.4472,1.83582 -0.70108,4.29883 -1.64316,6.46222 -2.26159,5.19373 -8.30267,6.22205 -11.48211,2.02899 -3.44742,-4.54644 1.10873,-6.30273 3.36206,-8.83978 -1.45469,-7.84735 -6.88944,-12.73657 -12.83246,-17.12677 -10.34253,-7.64014 -22.57764,-9.88495 -34.86313,-12.12402 -8.23081,-1.50012 -16.34088,-3.66242 -24.80991,-5.74189 -0.24817,-6.9497 -0.26336,-6.90716 6.11768,-4.62744 0.64334,0.22986 1.6116,-0.44983 2.49597,-1.04693 z"
       id="path133765" /><path
       fill="#8593c6"
       opacity="1"
       stroke="none"
       d="m 624.85565,602.95178 c 0.60144,-1.34741 1.10571,-2.75067 1.83594,-4.02417 0.55774,-0.97272 1.40161,-1.78125 2.04736,-2.57568 0.54541,0.0585 0.90973,10e-4 1.17102,0.13934 10.92987,5.77033 10.98383,5.82752 19.87543,-3.0802 3.12347,-3.12909 6.75177,-4.20868 10.86731,-3.27496 2.98566,0.67743 5.59064,2.05121 5.3902,5.97601 -0.15467,3.02844 -0.90802,6.3999 3.63678,7.41364 4.33532,0.96704 5.93408,-1.76673 8.02905,-5.15015 1.45984,-0.341 2.40942,-0.3313 3.35907,-0.32159 -4.82806,6.28912 -9.65863,12.57629 -14.48193,18.86902 -0.97992,1.2785 -1.93219,2.57812 -3.50629,4.04949 -0.75653,0.49176 -0.90393,0.80213 -1.05133,1.11243 0,0 0.0458,-0.0831 0.0877,-0.0608 -1.70014,0.0634 -3.4422,0.10455 -5.63788,-0.18652 -0.46179,-0.83319 -0.46997,-1.33423 -0.2298,-2.04383 -0.29321,-1.04205 -0.6402,-2.27868 -1.40558,-2.64776 -9.96112,-4.80316 -19.98157,-9.48316 -29.98706,-14.19428 z"
       id="path133767" /><path
       fill="#7875bc"
       opacity="1"
       stroke="none"
       d="m 492.6178,663.14209 c 1.99396,11.68994 9.2185,20.21081 17.15771,27.91168 8.86969,8.60346 18.56147,16.35925 28.07923,24.76636 -0.90821,0.91327 -2.00025,1.54419 -3.42347,2.21417 -4.6112,-5.99646 -10.50878,-9.59588 -17.36682,-12.2312 -14.35165,-5.51489 -25.65033,-14.3399 -30.22027,-29.89728 -1.94049,-6.60589 -0.68662,-9.76422 5.77362,-12.76373 z"
       id="path133769" /><path
       fill="#8da0ce"
       opacity="1"
       stroke="none"
       d="m 681.0462,598.04382 c -0.92804,4.9e-4 -1.87762,-0.009 -3.17657,-8.5e-4 -0.20606,-8.36548 -4.21173,-14.21106 -11.55664,-18.7384 2.96075,-0.47614 5.92151,-0.95227 9.42761,-1.02485 4.06653,4.17676 7.58771,7.94996 11.10895,11.72315 -1.58014,2.12909 -3.16028,4.25818 -5.07221,6.82757 -0.56652,0.65882 -0.70068,0.92743 -0.73425,1.24628 0,0 -0.0185,-0.0431 0.003,-0.0329 z"
       id="path133771" /><path
       fill="#7776bb"
       opacity="1"
       stroke="none"
       d="m 686.9989,589.68603 c -3.67059,-3.45635 -7.19177,-7.22955 -10.83758,-11.31298 5.94805,-0.89417 12.02081,-1.47803 18.50396,-2.1521 -2.23211,4.32263 -4.87457,8.73541 -7.66638,13.46508 z"
       id="path133773" /><path
       fill="#8593c6"
       opacity="1"
       stroke="none"
       d="m 681.29126,597.99792 c -0.2146,-0.24005 -0.0804,-0.50866 0.34485,-0.85424 0.0948,0.1737 -9.8e-4,0.47455 -0.34485,0.85424 z"
       id="path133775" /><path
       fill="#fdfefe"
       opacity="1"
       stroke="none"
       d="m 727.30438,514.05353 c -0.18853,-0.2229 -0.0603,-0.51819 0.34503,-0.90528 0.10852,0.18738 0.007,0.49561 -0.34503,0.90528 z"
       id="path133777" /><path
       fill="#fdfefe"
       opacity="1"
       stroke="none"
       d="m 662.28595,622.00549 c -0.11029,-0.23083 0.0371,-0.5412 0.4671,-0.92041 0.11859,0.23432 -0.0454,0.5376 -0.4671,0.92041 z"
       id="path133779" /><path
       fill="#7d7cae"
       opacity="1"
       stroke="none"
       d="m 292.31427,650.92712 c -0.0323,-4.52056 0.1171,-9.11401 0.84009,-13.61529 0.19998,-1.24524 2.12698,-3.18305 3.22629,-3.15949 8.39016,0.1803 16.23944,2.05597 21.92321,9.26697 -4.87939,-1.57196 -9.70514,-3.48724 -14.90866,-5.40454 -6.83041,-3.297 -8.12845,-2.4483 -8.48709,4.49634 -0.1463,2.83301 1.90247,6.49896 -2.59384,8.41601 z"
       id="path133781" /><path
       fill="#7d7cae"
       opacity="1"
       stroke="none"
       d="m 318.22485,644.13843 c 0.45676,-0.13654 1.0795,0.0282 1.90937,0.48913 -0.44306,0.13483 -1.09324,-0.0266 -1.90937,-0.48913 z"
       id="path133783" /><path
       fill="#7e7caf"
       opacity="1"
       stroke="none"
       d="m 259.26996,646.92078 c 1.7926,-2.1933 3.78094,-4.67786 6.30957,-6.34107 1.54446,-1.01581 4.68234,-1.72235 5.74765,-0.8706 1.70633,1.36425 2.28616,4.13745 2.94394,5.49401 -3.49146,1.24787 -6.56043,1.48652 -8.21692,3.14008 -2.42044,2.41632 -2.73587,5.53088 -0.11057,8.8396 2.62638,3.31 5.32309,4.95038 9.27283,3.1319 4.11221,-1.89319 8.08807,-4.08264 12.44534,-6.26221 -0.81878,5.84375 -7.84014,10.72827 -14.05639,9.88257 -9.72272,-1.32276 -11.21774,-3.0838 -11.70233,-12.89679 -0.0685,-1.38709 -1.44074,-2.70978 -2.63312,-4.11749 z"
       id="path133785" /><path
       fill="#807eb0"
       opacity="1"
       stroke="none"
       d="m 268.9212,716.74609 c -2.80252,-3.86242 -6.38369,-7.79443 -8.19049,-12.41967 -5.16107,-13.21192 -10.06531,-26.61915 -8.74536,-41.24604 0.53513,-5.92993 1.40474,-11.7868 6.52863,-16.18792 -0.40131,2.58801 -0.88913,5.3573 -1.94202,7.89178 -3.47838,8.37323 -2.96883,16.82257 -1.01396,25.38922 2.5576,11.20825 5.61146,22.20874 11.97297,32.00305 0.77765,1.19721 0.96238,2.77948 1.39023,4.56958 z"
       id="path133787" /><path
       fill="#807eb0"
       opacity="1"
       stroke="none"
       d="m 269.99652,718.65967 c -0.32996,-0.13727 -0.68875,-0.5777 -1.09946,-1.30805 0.32227,0.14167 0.69645,0.57331 1.09946,1.30805 z"
       id="path133789" /><path
       fill="#7e7caf"
       opacity="1"
       stroke="none"
       d="m 289.40002,653.00433 c 0.12806,-0.32464 0.55509,-0.68847 1.26307,-1.12298 -0.1341,0.31415 -0.54908,0.69903 -1.26307,1.12298 z"
       id="path133791" /><path
       fill="#807eb0"
       opacity="1"
       stroke="none"
       d="m 270.87604,719.88318 c -0.1922,0.0331 -0.46237,-0.17719 -0.78595,-0.64362 0.20038,-0.0373 0.45416,0.18146 0.78595,0.64362 z"
       id="path133793" /><path
       fill="#7673bb"
       opacity="1"
       stroke="none"
       d="m 610.35974,581.07251 c -8.6026,3.74426 -17.52356,7.64416 -26.59479,11.15595 -17.47638,6.7658 -34.77667,14.16668 -52.66107,19.63189 -10.88092,3.32514 -22.69003,3.76898 -34.13382,5.04401 -8.21692,0.9154 -16.51571,1.38958 -24.78424,1.47864 -11.97397,0.12902 -23.95404,-0.24268 -35.93072,-0.4455 -25.09272,-0.42499 -46.64145,-10.97473 -67.45383,-23.63721 -2.69556,-1.64001 -5.49628,-3.10717 -8.38907,-4.94372 15.14786,2.11773 28.91678,-3.61225 43.65131,-8.36811 2.40466,-0.30767 4.25088,-1.20379 5.62826,-0.73181 9.34342,3.20166 15.52277,-1.6214 21.42764,-7.78766 4.29712,-4.48736 9.40058,-6.93432 15.98975,-6.65973 3.98895,0.16633 8.14014,-0.96783 12.04782,-2.1043 4.81204,-1.39966 6.61206,-0.6128 5.80268,4.24365 -0.78037,4.68225 -2.66507,9.19855 -4.24698,13.724 -1.59232,4.55505 -3.4093,9.03149 -5.12787,13.54242 0.44635,0.19433 0.89273,0.38867 1.33911,0.58301 0.72571,-1.21808 1.58691,-2.37635 2.15506,-3.66389 3.48559,-7.8988 6.89764,-15.82995 10.35046,-23.74328 1.06137,-2.43256 1.71002,-5.26947 3.41513,-7.12335 1.28284,-1.39484 3.92734,-1.85022 6.01709,-1.99823 0.62232,-0.0441 2.08625,2.40094 2.01941,3.6438 -0.29135,5.4162 -1.03088,10.80725 -1.54596,16.21325 -0.126,1.32257 -0.0188,2.66736 -0.0188,4.0019 0.61829,0.16796 1.23658,0.33587 1.85486,0.50384 1.27359,-2.66473 3.789,-5.42255 3.59757,-7.97748 -0.68814,-9.18323 3.57965,-16.72809 6.909,-24.61432 0.72405,-1.71515 2.15679,-3.13104 3.26312,-4.68475 0.59326,-0.009 1.18649,-0.0189 1.77972,-0.0283 1.09638,3.77246 2.24756,7.53003 3.27676,11.32074 1.71781,6.32672 3.10288,12.76031 5.19028,18.95966 0.60132,1.78582 3.15753,4.07751 4.76898,4.04022 1.6998,-0.0393 3.55387,-2.41168 4.93223,-4.09845 0.88299,-1.08057 1.07916,-2.75006 1.492,-4.18195 1.19336,-4.13879 2.14984,-8.35675 3.55237,-12.42181 1.91174,-5.54071 4.28015,-6.00775 8.45099,-2.09155 3.39825,3.19067 6.80822,6.37872 10.37847,9.3706 1.22193,1.02393 2.94568,1.44898 4.95069,2.38635 0.19177,-3.35662 0.32818,-5.74481 0.52203,-9.13812 4.19422,3.55621 7.65204,6.54901 11.1789,9.45807 2.53259,2.08893 5.11853,3.0929 7.5581,-0.14911 -0.74798,-1.83447 -1.43622,-3.52221 -1.94488,-4.76959 4.80737,1.33923 9.36853,2.60992 13.92968,3.88061 11.16974,5.49994 22.64862,10.10975 35.40253,12.17957 z"
       id="path133795" /><path
       fill="#fcfcfd"
       opacity="1"
       stroke="none"
       d="m 574.80615,568.60046 c -4.41009,-0.97821 -8.97125,-2.2489 -13.77862,-3.58813 0.50866,1.24738 1.1969,2.93512 1.94488,4.76959 -2.43957,3.24201 -5.02551,2.23804 -7.5581,0.14911 -3.52686,-2.90906 -6.98468,-5.90186 -11.1789,-9.45807 -0.19385,3.39331 -0.33026,5.7815 -0.52203,9.13812 -2.00501,-0.93737 -3.72876,-1.36242 -4.95069,-2.38635 -3.57025,-2.99188 -6.98022,-6.17993 -10.37847,-9.3706 -4.17084,-3.9162 -6.53925,-3.44916 -8.45099,2.09155 -1.40253,4.06506 -2.35901,8.28302 -3.55237,12.42181 -0.41284,1.43189 -0.60901,3.10138 -1.492,4.18195 -1.37836,1.68677 -3.23243,4.05914 -4.93223,4.09845 -1.61145,0.0373 -4.16766,-2.2544 -4.76898,-4.04022 -2.0874,-6.19935 -3.47247,-12.63294 -5.19028,-18.95966 -1.0292,-3.79071 -2.18038,-7.54828 -3.27676,-11.32074 -0.59323,0.009 -1.18646,0.0189 -1.77972,0.0283 -1.10633,1.55371 -2.53907,2.9696 -3.26312,4.68475 -3.32935,7.88623 -7.59714,15.43109 -6.909,24.61432 0.19143,2.55493 -2.32398,5.31275 -3.59757,7.97748 -0.61828,-0.16797 -1.23657,-0.33588 -1.85486,-0.50384 0,-1.33454 -0.10723,-2.67933 0.0188,-4.0019 0.51508,-5.406 1.25461,-10.79705 1.54596,-16.21325 0.0668,-1.24286 -1.39709,-3.68787 -2.01941,-3.6438 -2.08975,0.14801 -4.73425,0.60339 -6.01709,1.99823 -1.70511,1.85388 -2.35376,4.69079 -3.41513,7.12335 -3.45282,7.91333 -6.86487,15.84448 -10.35046,23.74328 -0.56815,1.28754 -1.42935,2.44581 -2.15506,3.66389 -0.44638,-0.19434 -0.89276,-0.38868 -1.33911,-0.58301 1.71857,-4.51093 3.53555,-8.98737 5.12787,-13.54242 1.58191,-4.52545 3.46661,-9.04175 4.24698,-13.724 0.80938,-4.85645 -0.99064,-5.64331 -5.80268,-4.24365 -3.90768,1.13647 -8.05887,2.27063 -12.04782,2.1043 -6.58917,-0.27459 -11.69263,2.17237 -15.98975,6.65973 -5.90487,6.16626 -12.08422,10.98932 -21.42764,7.78766 -1.37738,-0.47198 -3.2236,0.42414 -5.25702,0.64185 0.50083,-1.1109 1.19443,-2.58563 2.3432,-3.17883 11.97583,-6.18409 20.4625,-16.37989 29.53879,-25.81305 7.58704,-7.88544 14.54172,-16.37684 21.83923,-24.54383 7.96601,-8.9151 15.80765,-17.95389 24.07377,-26.58417 6.48239,-6.76803 15.23581,-8.81735 24.14852,-8.3858 2.60468,0.12607 5.44172,3.87509 7.45133,6.51282 13.6618,17.93158 26.664,36.39117 40.90759,53.84076 5.19592,6.36536 13.19678,10.44116 20.06897,15.85406 z"
       id="path133797" /><path
       fill="#fbfaf9"
       opacity="1"
       stroke="none"
       d="m 261.36761,534.60663 c 0.11426,-3.22315 -0.53439,-7.0578 1.07193,-8.74286 1.5503,-1.62628 6.23249,-2.27588 8.06577,-1.08563 2.02939,1.31756 3.17712,5.17724 3.2912,7.98736 0.17813,4.38935 -3.58209,4.58228 -6.80963,4.17395 -1.85349,-0.23443 -3.6008,-1.30822 -5.61927,-2.33282 z"
       id="path133799" /><path
       fill="#fafaf9"
       opacity="1"
       stroke="none"
       d="m 324.047,562.27576 c -1.13816,0.39837 -1.93897,0.67993 -2.73935,0.67859 -3.42569,-0.006 -7.0152,0.49328 -8.48389,-3.98725 -1.38293,-4.21875 1.51688,-6.02093 4.15433,-7.91992 2.62991,-1.89362 4.87735,-0.96161 6.92541,1.28992 2.8696,3.15466 3.09827,6.32299 0.1435,9.93866 z"
       id="path133801" /><path
       fill="#fbf9f0"
       opacity="1"
       stroke="none"
       d="m 302.98364,531.93823 c 1.22269,-2.50781 2.12201,-4.97076 3.8501,-6.49255 0.61945,-0.54541 3.91095,0.72308 4.77261,1.9881 1.03403,1.51806 1.48047,4.18359 0.85047,5.84875 -0.49405,1.30567 -3.14688,2.72199 -4.59748,2.5 -1.75762,-0.26898 -3.2594,-2.2102 -4.8757,-3.8443 z"
       id="path133803" /><path
       fill="#8290c7"
       opacity="1"
       stroke="none"
       d="m 210.69807,277.14203 c 1.06345,2.7583 1.82682,5.66464 2.75798,9.20987 1.21358,-0.28076 3.4975,-0.80917 6.16822,-1.34079 -6.15464,7.66199 -12.96193,15.11832 -19.1816,23.03625 -12.53412,15.95648 -19.79918,34.38355 -23.28795,54.1857 -1.79692,10.19925 -2.18005,20.64978 -3.14509,30.99207 -0.28717,3.07764 -0.38112,6.17334 -0.28317,9.98529 0.71345,6.72052 0.44543,12.43713 -5.72782,15.80026 -3.90761,-1.53561 -7.81521,-3.07123 -12.45421,-4.89423 7.17195,-5.43121 7.68584,-12.51013 7.51183,-20.0419 -0.48566,-21.01944 1.4476,-41.7387 8.70219,-61.68679 5.38127,-14.79703 12.59619,-28.54346 23.48932,-40.08039 4.879,-5.16733 10.08992,-10.02124 15.4503,-15.16534 z"
       id="path133805" /><path
       fill="#8291c7"
       opacity="1"
       stroke="none"
       d="m 211.98273,532.59607 c -3.7327,-0.97589 -7.50679,-2.30878 -11.6196,-3.81897 -2.28302,-4.23596 -3.92317,-8.47699 -6.22666,-12.3205 -8.08259,-13.48654 -13.94976,-27.86535 -17.74368,-43.48382 2.05805,-1.31171 3.81694,-2.14633 5.57585,-2.98096 2.90311,6.11203 5.77468,12.23929 8.71558,18.33307 7.0684,14.64639 14.16933,29.27704 21.29851,44.27118 z"
       id="path133807" /><path
       fill="#8492c6"
       opacity="1"
       stroke="none"
       d="m 173.36179,466.71051 c -2.45203,-6.45111 -4.84446,-12.82373 -0.14145,-19.43515 1.0464,-1.47098 1.01735,-3.707 1.63842,-5.94058 5.14557,1.08874 3.14347,5.66876 4.00113,8.80133 1.16355,4.24972 1.39106,8.75577 1.6485,13.50982 -2.62988,1.2602 -4.88824,2.16239 -7.1466,3.06458 z"
       id="path133809" /><path
       fill="#9291cb"
       opacity="1"
       stroke="none"
       d="m 168.04364,419.37552 c 6.12825,-3.72797 6.39627,-9.44458 5.96898,-15.88748 0.46236,-0.27277 1.30524,-0.12537 1.31946,0.0795 0.41937,6.04654 2.75319,12.32971 -2.17714,18.11361 -1.80574,-0.43164 -3.43602,-1.18622 -5.1113,-2.30563 z"
       id="path133811" /><path
       fill="#eff2f7"
       opacity="1"
       stroke="none"
       d="m 173.29968,466.99945 c 2.32047,-1.19113 4.57883,-2.09332 7.23503,-2.94104 0.76419,1.76035 1.13054,3.46619 1.46541,5.55274 -1.79039,1.2153 -3.54928,2.04992 -5.61593,2.95413 -1.25405,-1.71259 -2.20034,-3.49469 -3.08451,-5.56583 z"
       id="path133813" /><path
       fill="#f1f3f8"
       opacity="1"
       stroke="none"
       d="m 230.91794,322.76849 c 0.0927,-3.8038 1.17166,-6.59607 5.21438,-4.92236 0.96393,0.39908 1.81688,3.92136 1.13851,4.84497 -1.46703,1.99741 -3.90969,4.18796 -6.35289,0.0774 z"
       id="path133815" /><path
       fill="#f1f3f8"
       opacity="1"
       stroke="none"
       d="m 151.95319,500.27335 c -0.91687,1.85281 -1.61023,3.8551 -2.97329,4.55709 -1.02334,0.52704 -3.57081,-0.17053 -4.22409,-1.14111 -0.67131,-0.99737 0.13279,-2.98782 0.29123,-4.54367 2.28066,0.23953 4.56133,0.47906 6.90615,1.12769 z"
       id="path133817" /><path
       fill="#7876bc"
       opacity="1"
       stroke="none"
       d="m 611.97107,629.93512 c -0.57648,0.31616 -1.15625,0.91394 -1.72888,0.90723 -13.41236,-0.15668 -26.8324,-0.15735 -40.23255,-0.67048 -8.23254,-0.31524 -16.43646,-1.41247 -24.64837,-2.20825 -1.58911,-0.15393 -3.15595,-0.53784 -6.20612,-1.07525 14.05762,-5.47223 26.09534,-13.34357 40.64899,-6.08979 6.96863,3.47327 9.95123,-2.51544 13.97528,-6.48364 1.73096,1.87244 2.75494,3.91815 4.37353,5.23059 4.47321,3.62696 9.19477,6.94776 13.81812,10.38959 z"
       id="path133819" /><path
       fill="#8794c6"
       opacity="1"
       stroke="none"
       d="m 612.43408,629.99695 c -5.08636,-3.50366 -9.80792,-6.82446 -14.28113,-10.45142 -1.61859,-1.31244 -2.64257,-3.35815 -4.07275,-5.39471 2.83197,-4.8523 7.43018,-6.04346 12.37347,-6.06238 3.82508,-0.0146 6.2229,2.08881 6.51587,6.06946 0.21088,2.86523 -0.98608,7.02307 2.91034,7.37164 2.48664,0.22247 5.23792,-2.51288 8.40491,-4.18103 6.32044,2.47522 12.10657,5.20929 17.8927,7.94336 -9.76013,1.58899 -19.5202,3.17798 -29.74341,4.70508 z"
       id="path133821" /><path
       fill="#899dcd"
       opacity="1"
       stroke="none"
       d="m 642.48602,625.25793 c -6.09466,-2.70013 -11.88079,-5.4342 -18.0235,-8.20886 -0.31067,-4.53454 -0.26471,-9.0285 0.0872,-13.80987 10.31146,4.4237 20.33191,9.1037 30.29303,13.90686 0.76538,0.36908 1.11237,1.60571 1.07502,2.79046 -2.68848,1.55329 -4.7981,2.75531 -6.90772,3.95734 -0.4317,0.0543 -0.8634,0.10846 -1.81482,-0.0792 -1.41034,0.21991 -2.30096,0.68176 -3.19159,1.14361 -0.40301,0.0886 -0.80603,0.17719 -1.51758,0.29962 z"
       id="path133823" /><path
       fill="#8794c6"
       opacity="1"
       stroke="none"
       d="m 649.38538,623.9165 c 1.73425,-1.22467 3.84387,-2.42669 6.28405,-3.77136 0.33869,0.35828 0.34687,0.85932 0.37281,1.73767 -2.08191,0.93707 -4.1817,1.49671 -6.65686,2.03369 z"
       id="path133825" /><path
       fill="#8794c6"
       opacity="1"
       stroke="none"
       d="m 644.34351,624.979 c 0.55072,-0.48254 1.44134,-0.94439 2.52514,-1.13745 -0.59961,0.56531 -1.39245,0.86176 -2.52514,1.13745 z"
       id="path133827" /></g></g>
</svg>
